<svg xmlns="http://www.w3.org/2000/svg" width="34" height="103.938" viewBox="0 0 34 103.938">
  <g id="Group_356" data-name="Group 356" transform="translate(-853.444 -106.453)">
    <path id="Path_1103" data-name="Path 1103" d="M870.444,210.391a17,17,0,0,1-17-17V106.453h34v86.938A17,17,0,0,1,870.444,210.391Z" fill="#1ab5d5"/>
    <path id="Path_1104" data-name="Path 1104" d="M864.439,192.46a6,6,0,0,1,6-6h0a5.991,5.991,0,0,1,6,6h0a6,6,0,0,1-6,6h0A6.005,6.005,0,0,1,864.439,192.46Zm0-34.24a6,6,0,0,1,6-6h0a5.991,5.991,0,0,1,6,6h0a6,6,0,0,1-6,6h0A6.005,6.005,0,0,1,864.439,158.22Zm0-31.455a6,6,0,0,1,6-6h0a5.992,5.992,0,0,1,6,6h0a6,6,0,0,1-6,6h0A6.005,6.005,0,0,1,864.439,126.765Z" fill="none" stroke="#fff" stroke-miterlimit="10" stroke-width="1"/>
  </g>
</svg>
