<svg xmlns="http://www.w3.org/2000/svg" width="670.799" height="127.327" viewBox="0 0 670.799 127.327">
  <g id="Group_307" data-name="Group 307" transform="translate(-293.03 -345.275)">
    <path id="Path_1072" data-name="Path 1072" d="M929.829,472.6V406.021a26.776,26.776,0,0,0-26.745-26.746H310.03a17,17,0,0,1,0-34H903.084a60.814,60.814,0,0,1,60.745,60.746V472.6Z" fill="#1ab5d5"/>
    <g id="Path_1067" data-name="Path 1067">
      <path id="Path_1073" data-name="Path 1073" d="M310.03,368.27a6.624,6.624,0,0,1-1.17-.11,6.425,6.425,0,0,1-1.13-.35,5.715,5.715,0,0,1-1.03-.55,5.448,5.448,0,0,1-.91-.74,6.427,6.427,0,0,1-.75-.911,6.8,6.8,0,0,1-.55-1.04,5.533,5.533,0,0,1-.34-1.119,5.813,5.813,0,0,1,0-2.35,5.561,5.561,0,0,1,.34-1.12,6.344,6.344,0,0,1,.55-1.03,5.79,5.79,0,0,1,1.66-1.66,5.7,5.7,0,0,1,1.03-.56,6.387,6.387,0,0,1,1.13-.34,5.973,5.973,0,0,1,6.16,2.56,6.342,6.342,0,0,1,.55,1.03,5.561,5.561,0,0,1,.34,1.12,5.813,5.813,0,0,1,0,2.35,5.533,5.533,0,0,1-.34,1.119,6.8,6.8,0,0,1-.55,1.04,6.427,6.427,0,0,1-.75.911,5.448,5.448,0,0,1-.91.74,5.8,5.8,0,0,1-1.04.55,6.323,6.323,0,0,1-1.12.35A6.714,6.714,0,0,1,310.03,368.27Z" fill="none" stroke="#e8f6fa" stroke-miterlimit="10" stroke-width="1"/>
      <path id="Path_1074" data-name="Path 1074" d="M937.27,389.99a6,6,0,0,1,2.879-7.98h0a6,6,0,0,1,7.981,2.88h0a5.994,5.994,0,0,1-2.88,7.98h0a5.948,5.948,0,0,1-2.55.569h0A5.986,5.986,0,0,1,937.27,389.99Zm-34.081-21.72a5.99,5.99,0,0,1-5.979-6.01h0a6,6,0,0,1,6.01-5.99h0a6.013,6.013,0,0,1,5.99,6.02h0a6,6,0,0,1-6,5.98h-.021Zm-55.419-5.99a6.009,6.009,0,0,1,6.01-6.01h0a6.007,6.007,0,0,1,6,6.01h0a6,6,0,0,1-6,5.99h0A6,6,0,0,1,847.77,362.28Zm-49.43,0a6.007,6.007,0,0,1,6-6.01h0a6,6,0,0,1,6,6.01h0a5.99,5.99,0,0,1-6,5.99h0A6,6,0,0,1,798.34,362.28Zm-49.43,0a6.007,6.007,0,0,1,6-6.01h0a6,6,0,0,1,6,6.01h0a5.99,5.99,0,0,1-6,5.99h0A6,6,0,0,1,748.91,362.28Zm-49.431,0a6.008,6.008,0,0,1,6-6.01h0a6.006,6.006,0,0,1,6,6.01h0a6,6,0,0,1-6,5.99h0A6,6,0,0,1,699.479,362.28Zm-49.429,0a6.007,6.007,0,0,1,6-6.01h0a6.008,6.008,0,0,1,6,6.01h0a6,6,0,0,1-6,5.99h0A6,6,0,0,1,650.05,362.28Zm-49.43,0a6,6,0,0,1,6-6.01h0a6.007,6.007,0,0,1,6,6.01h0a6,6,0,0,1-6,5.99h0A5.99,5.99,0,0,1,600.62,362.28Zm-49.431,0a6,6,0,0,1,6-6.01h0a6.006,6.006,0,0,1,6,6.01h0a6,6,0,0,1-6,5.99h0A5.99,5.99,0,0,1,551.189,362.28Zm-49.429,0a6,6,0,0,1,5.99-6.01h0a6,6,0,0,1,6,6.01h0a5.99,5.99,0,0,1-6,5.99h0A5.987,5.987,0,0,1,501.76,362.28Zm-49.43,0a6,6,0,0,1,5.99-6.01h0a6,6,0,0,1,6,6.01h0a5.99,5.99,0,0,1-6,5.99h0A5.988,5.988,0,0,1,452.33,362.28Zm-49.44,0a6.007,6.007,0,0,1,6-6.01h0a6,6,0,0,1,6,6.01h0a5.99,5.99,0,0,1-6,5.99h0A6,6,0,0,1,402.89,362.28Zm-49.43,0a6.007,6.007,0,0,1,6-6.01h0a6,6,0,0,1,6,6.01h0a5.99,5.99,0,0,1-6,5.99h0A6,6,0,0,1,353.46,362.28Z" fill="none" stroke="#e8f6fa" stroke-miterlimit="10" stroke-width="1"/>
      <path id="Path_1075" data-name="Path 1075" d="M946.83,442.31a5.661,5.661,0,0,1-1.17-.121,5.908,5.908,0,0,1-2.16-.889,5.461,5.461,0,0,1-.91-.75,6,6,0,1,1,8.479-8.481,5.444,5.444,0,0,1,.75.91,6.122,6.122,0,0,1,.891,2.161,5.739,5.739,0,0,1,.12,1.17,6.011,6.011,0,0,1-6,6Z" transform="translate(0 -10)" fill="none" stroke="#e8f6fa" stroke-miterlimit="10" stroke-width="1"/>
      <path id="Path_1097" data-name="Path 1097" d="M946.83,442.31a5.661,5.661,0,0,1-1.17-.121,5.908,5.908,0,0,1-2.16-.889,5.461,5.461,0,0,1-.91-.75,6,6,0,1,1,8.479-8.481,5.444,5.444,0,0,1,.75.91,6.122,6.122,0,0,1,.891,2.161,5.739,5.739,0,0,1,.12,1.17,6.011,6.011,0,0,1-6,6Z" transform="translate(0 27)" fill="none" stroke="#e8f6fa" stroke-miterlimit="10" stroke-width="1"/>
    </g>
  </g>
</svg>
