<svg xmlns="http://www.w3.org/2000/svg" width="725.686" height="193.359" viewBox="0 0 725.686 193.359">
  <g id="Group_308" data-name="Group 308" transform="translate(-123.899)">
    <g id="Group_378" data-name="Group 378" transform="translate(132.995 -294.081)">
      <path id="Path_1126" data-name="Path 1126" d="M716.59,294.081v67.945A54.038,54.038,0,0,1,662.613,416H43.623a18.719,18.719,0,1,0,0,37.437H61.588a17,17,0,0,1,0,34H43.623a52.719,52.719,0,1,1,0-105.437h618.99a20,20,0,0,0,19.977-19.977V294.081Z" fill="#1ab5d5"/>
      <g id="Path_1066" data-name="Path 1066">
        <path id="Path_1127" data-name="Path 1127" d="M61.59,476.439a5.949,5.949,0,0,1-4.99-2.669,5.406,5.406,0,0,1-.55-1.041,5.336,5.336,0,0,1-.34-1.12,5.759,5.759,0,0,1,0-2.339,5.59,5.59,0,0,1,.34-1.121,5.774,5.774,0,0,1,.55-1.04,6.522,6.522,0,0,1,.74-.909,6.032,6.032,0,0,1,5.42-1.64,5.624,5.624,0,0,1,1.12.339,6.988,6.988,0,0,1,1.04.551,6.161,6.161,0,0,1,1.66,1.659,6.486,6.486,0,0,1,.55,1.04,6.324,6.324,0,0,1,.34,1.121,5.726,5.726,0,0,1,.12,1.169,6.014,6.014,0,0,1-1.76,4.241,5.95,5.95,0,0,1-.91.75,5.738,5.738,0,0,1-1.04.549,5.435,5.435,0,0,1-1.12.34A5.81,5.81,0,0,1,61.59,476.439Z" fill="none" stroke="#fff" stroke-miterlimit="10" stroke-width="1"/>
        <path id="Path_1128" data-name="Path 1128" d="M10.71,460.37h.01a6,6,0,0,1,1.03-8.42h0a6.01,6.01,0,0,1,8.43,1.029v.011a6.009,6.009,0,0,1-1.04,8.42h0a6.025,6.025,0,0,1-3.69,1.27h0A6.022,6.022,0,0,1,10.71,460.37Zm2.67-45.58a6,6,0,0,1-.3-8.48h0v-.01h0a6,6,0,0,1,8.48-.3h0a6,6,0,0,1,.3,8.479h0a5.964,5.964,0,0,1-4.39,1.911h0A6.006,6.006,0,0,1,13.38,414.79ZM613.319,399a6,6,0,0,1,6-6h0a6,6,0,0,1,6,6h0a6,6,0,0,1-6,6h0A5.993,5.993,0,0,1,613.319,399Zm-50.42,0a6,6,0,0,1,6-6h0a6,6,0,0,1,6,6h0a6,6,0,0,1-6,6h0A5.993,5.993,0,0,1,562.9,399Zm-50.42,0a6,6,0,0,1,5.991-6h0a6.005,6.005,0,0,1,6.009,6h0a6,6,0,0,1-6.009,6h0A5.991,5.991,0,0,1,512.479,399Zm-50.429,0a6,6,0,0,1,6-6h0a6,6,0,0,1,6,6h0a5.993,5.993,0,0,1-6,6h0A6,6,0,0,1,462.05,399Zm-50.42,0a6,6,0,0,1,6-6h0a6,6,0,0,1,6,6h0a5.993,5.993,0,0,1-6,6h0A6,6,0,0,1,411.63,399Zm-50.42,0a6,6,0,0,1,6-6h0a6,6,0,0,1,6,6h0a5.993,5.993,0,0,1-6,6h0A6,6,0,0,1,361.21,399Zm-50.42,0a6,6,0,0,1,6-6h0a6,6,0,0,1,6,6h0a5.993,5.993,0,0,1-6,6h0A6,6,0,0,1,310.79,399Zm-50.42,0a6,6,0,0,1,6-6h0a6,6,0,0,1,6,6h0a5.993,5.993,0,0,1-6,6h0A6,6,0,0,1,260.37,399Zm-50.42,0a6,6,0,0,1,6-6h0a6,6,0,0,1,6,6h0a6,6,0,0,1-6,6h0A6,6,0,0,1,209.95,399Zm-50.42,0a6,6,0,0,1,6-6h0a6,6,0,0,1,6,6h0a6,6,0,0,1-6,6h0A6,6,0,0,1,159.53,399Zm-50.42,0a6,6,0,0,1,6-6h0a6,6,0,0,1,6,6h0a6,6,0,0,1-6,6h0A6,6,0,0,1,109.11,399Zm-50.42,0a6,6,0,0,1,6-6h0a6,6,0,0,1,6,6h0a6,6,0,0,1-6,6h0A5.993,5.993,0,0,1,58.69,399Zm605.11.47a6,6,0,0,1,4.75-7.031h0v-.009h0a6,6,0,0,1,7.03,4.75h0a6.006,6.006,0,0,1-4.75,7.04v-.01a5.614,5.614,0,0,1-1.15.12h0A6.013,6.013,0,0,1,663.8,399.47Zm35.7-30.88a6,6,0,0,1-5.91-6.09h0a5.983,5.983,0,0,1,6.08-5.91h0a6,6,0,0,1,5.92,6.09l-.01-.01a6,6,0,0,1-6,5.92h-.08Z" fill="none" stroke="#fff" stroke-miterlimit="10" stroke-width="1"/>
        <path id="Path_1129" data-name="Path 1129" d="M699.59,318.08a6.012,6.012,0,0,1-4.24-1.76,5.406,5.406,0,0,1-.75-.91,5.658,5.658,0,0,1-.55-1.03,5.586,5.586,0,0,1-.34-1.13,5.735,5.735,0,0,1-.12-1.17,6,6,0,0,1,12,0,6.21,6.21,0,0,1-.46,2.3,6.428,6.428,0,0,1-.55,1.03,5.608,5.608,0,0,1-.75.91A6.029,6.029,0,0,1,699.59,318.08Z" fill="none" stroke="#fff" stroke-miterlimit="10" stroke-width="1"/>
      </g>
    </g>
  </g>
</svg>
