<svg xmlns="http://www.w3.org/2000/svg" width="838" height="202.565" viewBox="0 0 838 202.565">
  <g id="Group_306" data-name="Group 306" transform="translate(51.917 -102.099)">
    <path id="Path_1068" data-name="Path 1068" d="M20.177,304.664H8.544a60.461,60.461,0,1,1,0-120.922H725.86a26.252,26.252,0,0,0,26.223-26.222V102.1h34V157.52a60.291,60.291,0,0,1-60.223,60.222H8.544a26.461,26.461,0,1,0,0,52.922H20.177a17,17,0,0,1,0,34Z" fill="#1ab5d5"/>
    <g id="Path_1066" data-name="Path 1066">
      <path id="Path_1069" data-name="Path 1069" d="M769.08,135.04a5.8,5.8,0,0,1-1.17-.12,5.542,5.542,0,0,1-1.12-.34,6.094,6.094,0,0,1-1.04-.55,5.947,5.947,0,0,1-.91-.75,6.011,6.011,0,0,1-1.76-4.24,5.807,5.807,0,0,1,.12-1.17,6.292,6.292,0,0,1,.34-1.12,6.805,6.805,0,0,1,.55-1.04,6.146,6.146,0,0,1,1.66-1.66,6.893,6.893,0,0,1,1.04-.55,6.263,6.263,0,0,1,1.12-.34,5.813,5.813,0,0,1,2.35,0,5.982,5.982,0,0,1,2.15.89,6.028,6.028,0,0,1,.92.75,6.457,6.457,0,0,1,.739.91,6.029,6.029,0,0,1,.551,1.04,6.314,6.314,0,0,1,.35,1.12,6.617,6.617,0,0,1,.11,1.17,5.952,5.952,0,0,1-2.67,4.99,5.653,5.653,0,0,1-1.03.55,5.56,5.56,0,0,1-1.12.34A5.907,5.907,0,0,1,769.08,135.04Z" fill="none" stroke="#e8f6fa" stroke-width="1"/>
      <path id="Path_1070" data-name="Path 1070" d="M-30.18,274.98a6.017,6.017,0,0,1,.96-8.44h0a6,6,0,0,1,8.43.96h0a6,6,0,0,1-.96,8.43h0a5.956,5.956,0,0,1-3.73,1.31h0A6,6,0,0,1-30.18,274.98Zm-2.41-46.06a6,6,0,0,1-2.44-8.13h0a5.99,5.99,0,0,1,8.12-2.44h0a6,6,0,0,1,2.44,8.13h0a5.992,5.992,0,0,1-5.29,3.15h0A6,6,0,0,1-32.59,228.92ZM715,200.74a6,6,0,0,1,6-6h0a6,6,0,0,1,6,6h0a6,6,0,0,1-6,6h0A6,6,0,0,1,715,200.74Zm-50.62,0a6,6,0,0,1,6-6h0a6.005,6.005,0,0,1,6,6h0a6,6,0,0,1-6,6h0A5.992,5.992,0,0,1,664.38,200.74Zm-50.62,0a6,6,0,0,1,6-6h0a6.005,6.005,0,0,1,6,6h0a6,6,0,0,1-6,6h0A5.991,5.991,0,0,1,613.76,200.74Zm-50.63,0a6.006,6.006,0,0,1,6.01-6h0a6,6,0,0,1,5.99,6h0a5.99,5.99,0,0,1-5.99,6h0A6,6,0,0,1,563.13,200.74Zm-50.62,0a6,6,0,0,1,6-6h0a6,6,0,0,1,6,6h0a5.992,5.992,0,0,1-6,6h0A6,6,0,0,1,512.51,200.74Zm-50.62,0a6,6,0,0,1,6-6h0a6,6,0,0,1,6,6h0a5.992,5.992,0,0,1-6,6h0A6,6,0,0,1,461.89,200.74Zm-50.62,0a6,6,0,0,1,6-6h0a6,6,0,0,1,6,6h0a6,6,0,0,1-6,6h0A6,6,0,0,1,411.27,200.74Zm-50.62,0a6,6,0,0,1,6-6h0a6,6,0,0,1,6,6h0a5.992,5.992,0,0,1-6,6h0A6,6,0,0,1,360.65,200.74Zm-50.62,0a6,6,0,0,1,6-6h0a6,6,0,0,1,6,6h0a6,6,0,0,1-6,6h0A6,6,0,0,1,310.03,200.74Zm-50.62,0a6,6,0,0,1,6-6h0a6,6,0,0,1,6,6h0a6,6,0,0,1-6,6h0A5.992,5.992,0,0,1,259.41,200.74Zm-50.62,0a6,6,0,0,1,6-6h0a6,6,0,0,1,6,6h0a6,6,0,0,1-6,6h0A5.992,5.992,0,0,1,208.79,200.74Zm-50.62,0a6,6,0,0,1,6-6h0a6,6,0,0,1,6,6h0a6,6,0,0,1-6,6h0A5.992,5.992,0,0,1,158.17,200.74Zm-50.63,0a6.007,6.007,0,0,1,6.01-6h0a6,6,0,0,1,5.99,6h0a5.99,5.99,0,0,1-5.99,6h0A6,6,0,0,1,107.54,200.74Zm-50.62,0a6,6,0,0,1,6-6h0a6,6,0,0,1,6,6h0a5.992,5.992,0,0,1-6,6h0A6,6,0,0,1,56.92,200.74Zm-50.62,0a6,6,0,0,1,6-6h0a6,6,0,0,1,6,6h0a6,6,0,0,1-6,6h0A6,6,0,0,1,6.3,200.74Zm754.29-16.8a6.011,6.011,0,0,1-2.28-8.18v.01a6,6,0,0,1,8.169-2.29h0a6.014,6.014,0,0,1,2.291,8.18h0a6.021,6.021,0,0,1-5.24,3.05h0A6.036,6.036,0,0,1,760.59,183.94Z" fill="none" stroke="#e8f6fa" stroke-width="1"/>
      <path id="Path_1071" data-name="Path 1071" d="M20.18,293.67a5.905,5.905,0,0,1-1.18-.12,7.232,7.232,0,0,1-1.12-.34,5.7,5.7,0,0,1-1.03-.56,5.476,5.476,0,0,1-1.66-1.66,5.653,5.653,0,0,1-.55-1.03,6.319,6.319,0,0,1-.35-1.12,6.331,6.331,0,0,1,0-2.35,6.32,6.32,0,0,1,.35-1.12,6.094,6.094,0,0,1,.55-1.04,7.175,7.175,0,0,1,.74-.91,5.965,5.965,0,0,1,.92-.74,5.7,5.7,0,0,1,1.03-.56,6.287,6.287,0,0,1,1.12-.34,6.193,6.193,0,0,1,2.35,0,6.287,6.287,0,0,1,1.12.34,6.144,6.144,0,0,1,1.04.56,5.887,5.887,0,0,1,.91.74,6.475,6.475,0,0,1,.75.91,6.894,6.894,0,0,1,.55,1.04,6.287,6.287,0,0,1,.34,1.12,5.809,5.809,0,0,1,.12,1.17,5.907,5.907,0,0,1-.12,1.18,5.982,5.982,0,0,1-.89,2.15,6.027,6.027,0,0,1-.75.92,6.533,6.533,0,0,1-.91.74,6.144,6.144,0,0,1-1.04.56,7.232,7.232,0,0,1-1.12.34A5.808,5.808,0,0,1,20.18,293.67Z" fill="none" stroke="#e8f6fa" stroke-width="1"/>
    </g>
  </g>
</svg>
