<svg width="150" height="151" viewBox="0 0 150 151" fill="none" xmlns="http://www.w3.org/2000/svg">
<mask id="mask0" mask-type="alpha" maskUnits="userSpaceOnUse" x="0" y="0" width="150" height="151">
<path d="M115.724 150.861V60.839C115.716 53.7233 112.886 46.9013 107.854 41.8697C102.823 36.8382 96.0008 34.0079 88.8851 34H17C12.4913 34 8.16731 32.2089 4.97919 29.0208C1.79107 25.8327 0 21.5087 0 17C0 12.4913 1.79107 8.16727 4.97919 4.97916C8.16731 1.79104 12.4913 0 17 0H88.888C105.018 0.0182625 120.482 6.43391 131.888 17.8395C143.293 29.245 149.709 44.7091 149.727 60.839V150.861H115.724Z" fill="#1AB5D5"/>
<path d="M17.004 23.001C16.6073 23.0011 16.2116 22.9609 15.823 22.881C15.4403 22.8026 15.0657 22.6888 14.704 22.541C14.3422 22.3879 13.9942 22.2039 13.664 21.991C13.3383 21.7695 13.0337 21.5184 12.754 21.241C12.4782 20.9626 12.2304 20.6578 12.014 20.331C11.7952 20.0043 11.6108 19.6558 11.464 19.291C11.313 18.9292 11.1955 18.5543 11.113 18.171C11.0426 17.7849 11.0061 17.3934 11.004 17.001C11.0056 16.6085 11.0421 16.217 11.113 15.831C11.1955 15.4445 11.3129 15.0662 11.464 14.701C11.6109 14.3394 11.7953 13.9942 12.014 13.671C12.2304 13.3442 12.4782 13.0394 12.754 12.761C13.0337 12.4836 13.3383 12.2325 13.664 12.011C13.992 11.7943 14.3403 11.6101 14.704 11.461C15.0641 11.3087 15.4391 11.1947 15.823 11.121C16.5985 10.961 17.3985 10.961 18.174 11.121C18.5583 11.1946 18.9337 11.3086 19.294 11.461C19.6575 11.6106 20.0058 11.7947 20.334 12.011C20.6613 12.23 20.9658 12.4812 21.243 12.761C21.5251 13.0339 21.7739 13.3394 21.984 13.671C22.2056 13.9942 22.3932 14.3393 22.544 14.701C22.692 15.0664 22.8058 15.4446 22.884 15.831C22.964 16.2159 23.0042 16.6079 23.004 17.001C22.9991 18.5912 22.3661 20.1152 21.243 21.241C20.9658 21.5207 20.6613 21.772 20.334 21.991C20.0035 22.2034 19.6556 22.3874 19.294 22.541C18.9321 22.6889 18.5571 22.8027 18.174 22.881C17.7891 22.9604 17.3971 23.0006 17.004 23.001V23.001Z" stroke="white" stroke-miterlimit="10"/>
<path d="M126.724 80.37C126.725 78.7791 127.358 77.2537 128.483 76.1288C129.608 75.0039 131.133 74.3713 132.724 74.37V74.37C134.315 74.37 135.841 75.0021 136.967 76.1273C138.092 77.2526 138.724 78.7787 138.724 80.37C138.725 81.1583 138.571 81.939 138.27 82.6675C137.969 83.396 137.527 84.0579 136.969 84.6153C136.412 85.1727 135.75 85.6146 135.022 85.9157C134.293 86.2168 133.512 86.3712 132.724 86.37V86.37C131.133 86.37 129.607 85.7379 128.481 84.6126C127.356 83.4874 126.724 81.9613 126.724 80.37ZM115.974 34.421C115.423 33.8572 114.988 33.1903 114.695 32.4583C114.401 31.7264 114.255 30.9438 114.264 30.1552C114.273 29.3667 114.438 28.5878 114.749 27.863C115.059 27.1381 115.51 26.4816 116.074 25.931V25.931C117.214 24.8204 118.748 24.2072 120.34 24.226C121.932 24.2447 123.451 24.8938 124.565 26.031V26.031C125.674 27.1726 126.285 28.7073 126.265 30.2987C126.244 31.8901 125.593 33.4085 124.455 34.521V34.521C123.336 35.6162 121.831 36.2269 120.265 36.221V36.221C119.466 36.2234 118.674 36.0653 117.937 35.7561C117.2 35.4469 116.532 34.9929 115.974 34.421V34.421ZM64.434 17.001C64.434 15.4097 65.0661 13.8835 66.1913 12.7583C67.3166 11.6331 68.8427 11.001 70.434 11.001V11.001C72.0253 11.001 73.5515 11.6331 74.6767 12.7583C75.8019 13.8835 76.434 15.4097 76.434 17.001V17.001C76.434 18.5923 75.8019 20.1184 74.6767 21.2436C73.5515 22.3688 72.0253 23.001 70.434 23.001V23.001C68.8427 23.001 67.3166 22.3688 66.1913 21.2436C65.0661 20.1184 64.434 18.5923 64.434 17.001V17.001Z" stroke="white" stroke-miterlimit="10"/>
<path d="M132.724 139.851C132.332 139.849 131.94 139.812 131.554 139.74C131.171 139.659 130.796 139.542 130.434 139.391C130.071 139.241 129.722 139.057 129.394 138.841C129.07 138.622 128.765 138.374 128.484 138.101C127.361 136.971 126.728 135.444 126.724 133.851C126.724 133.458 126.765 133.066 126.844 132.681C126.922 132.298 127.036 131.923 127.184 131.561C127.337 131.199 127.521 130.851 127.734 130.521C127.956 130.195 128.207 129.891 128.484 129.611C128.762 129.334 129.067 129.086 129.394 128.87C130.053 128.441 130.785 128.135 131.554 127.97C132.33 127.82 133.127 127.82 133.903 127.97C134.288 128.047 134.664 128.164 135.024 128.32C135.387 128.463 135.733 128.648 136.054 128.869C136.384 129.085 136.693 129.333 136.974 129.61C137.245 129.893 137.492 130.197 137.714 130.52C137.93 130.848 138.114 131.197 138.264 131.56C138.415 131.922 138.532 132.297 138.613 132.68C138.685 133.066 138.722 133.457 138.724 133.85C138.72 135.443 138.087 136.97 136.964 138.1C136.685 138.375 136.38 138.623 136.054 138.84C135.73 139.058 135.385 139.242 135.024 139.39C134.298 139.702 133.514 139.858 132.724 139.85V139.851Z" stroke="white" stroke-miterlimit="10"/>
</mask>
<g mask="url(#mask0)">
<path class='patlast' d="M-16 20H105.5C117.833 19.3333 140.9 46.3 134.5 159.5C128.1 272.7 131.833 228 134.5 191.5" stroke="white" stroke-width="43"/>
</g>
</svg>
