<svg xmlns="http://www.w3.org/2000/svg" width="209.069" height="240.92" viewBox="0 0 209.069 240.92">
  <g id="brand-filled-rest-outline" transform="translate(0.519 0.289)">
    <path id="Path_217" data-name="Path 217" d="M58.276,221.084V341.19l104.015,60.053L266.306,341.19V221.084L162.291,161.031Z" transform="translate(-58.276 -161.031)" fill="none" stroke="#a8dbea" stroke-width="0.5"/>
        <path id="Path_1080" data-name="Path 1080" d="M162.291,319.687l104.015,54.582-104.015,59.7-104.015-59.7Z" transform="translate(-58.276 -193.805)" fill="#0094a0" opacity="0.632"/>
    <path id="Path_218" data-name="Path 218" d="M162.291,319.687l104.015,54.582-104.015,59.7-104.015-59.7Z" transform="translate(-58.276 -193.805)" fill="#0094a0"/>
    <circle id="Ellipse_99" data-name="Ellipse 99" cx="29.482" cy="29.482" r="29.482" transform="translate(74.533 90.624)" fill="none" stroke="#a8dbea" stroke-width="0.5"/>
    <path id="Path_1077" data-name="Path 1077" d="M162.291,275.313l104.015-54.582-104.015-59.7-104.015,59.7Z" transform="translate(-58.276 -160.031)" fill="none" stroke="#a8dbea" stroke-width="0.5"/>
    <path id="Path_224" data-name="Path 224" d="M190.1,416.215l.069-124.513,103.321-54.564V356.5Z" transform="translate(-85.457 -176.018)" fill="none" stroke="#a8dbea" stroke-width="0.5"/>
  </g>
</svg>
