<svg xmlns="http://www.w3.org/2000/svg" width="125.507" height="23.266" viewBox="0 0 125.507 23.266">
  <g id="Group_174" data-name="Group 174" transform="translate(-221.078 -2848.184)">
    <path id="Path_573" data-name="Path 573" d="M250.683,2857.95a2.716,2.716,0,0,1,2.647,2.877h-5.479A2.777,2.777,0,0,1,250.683,2857.95Zm5.837,8.59a14.79,14.79,0,0,1-1.783.5,11.014,11.014,0,0,1-2.183.222c-2.4,0-4.285-.8-4.593-2.705h10.255a11.923,11.923,0,0,0,.21-2.182c0-4.33-2.154-8.3-7.649-8.3-5.339,0-8.181,4.186-8.181,8.877,0,5.407,3.78,8.5,9.058,8.5a15.366,15.366,0,0,0,3.138-.285,12.721,12.721,0,0,0,2.555-.8Z" fill="#696969"/>
    <path id="Path_574" data-name="Path 574" d="M330.3,2857.95a2.716,2.716,0,0,1,2.647,2.877h-5.479A2.777,2.777,0,0,1,330.3,2857.95Zm5.837,8.59a14.806,14.806,0,0,1-1.784.5,11,11,0,0,1-2.182.222c-2.4,0-4.285-.8-4.593-2.705h10.254a11.811,11.811,0,0,0,.211-2.182c0-4.33-2.155-8.3-7.649-8.3-5.339,0-8.181,4.186-8.181,8.877,0,5.407,3.78,8.5,9.058,8.5a15.392,15.392,0,0,0,3.139-.285,12.723,12.723,0,0,0,2.553-.8Z" fill="#696969"/>
    <path id="Path_575" data-name="Path 575" d="M260.938,2848.554v22.534H266.5v-22.534Z" fill="#696969"/>
    <path id="Path_576" data-name="Path 576" d="M277.667,2867.32c-1.807,0-2.993-1.786-2.993-4.547,0-2.2.795-4.549,3.012-4.549,2.139,0,2.9,2.434,2.9,4.524C280.584,2865.523,279.43,2867.32,277.667,2867.32Zm-.075,4.124c4.339,0,8.731-2.732,8.731-8.835,0-3.634-2.153-8.515-8.459-8.515-6.491,0-8.86,4.73-8.86,8.792A8.175,8.175,0,0,0,277.592,2871.444Z" fill="#696969"/>
    <path id="Path_577" data-name="Path 577" d="M288.741,2854.46v16.628H294.3V2854.46Z" fill="#696969"/>
    <path id="Path_578" data-name="Path 578" d="M288.741,2848.561v4.318H294.3v-4.318Z" fill="#696969"/>
    <path id="Path_579" data-name="Path 579" d="M298.706,2849.935v4.523h-2.137v4.12h2.137v6.813c0,3.746,1.713,6.039,5.623,6.039a16.154,16.154,0,0,0,2.324-.19,12.545,12.545,0,0,0,1.606-.323c.005,0-.04-4.344-.04-4.36a11.984,11.984,0,0,1-1.9.274,2.149,2.149,0,0,1-1.586-.543,2.5,2.5,0,0,1-.582-1.827v-5.883h3.594v-4.12H304.15v-5.136Z" fill="#696969"/>
    <path id="Path_580" data-name="Path 580" d="M311.571,2849.935v4.523h-2.136v4.12h2.136v6.813c0,3.746,1.713,6.039,5.624,6.039a16.151,16.151,0,0,0,2.323-.19,12.544,12.544,0,0,0,1.606-.323c.005,0-.04-4.344-.04-4.36a11.967,11.967,0,0,1-1.9.274,2.151,2.151,0,0,1-1.586-.543,2.5,2.5,0,0,1-.581-1.827v-5.883h3.593v-4.12h-3.593v-5.136Z" fill="#696969"/>
    <path id="Path_581" data-name="Path 581" d="M340.432,2868.373a3.076,3.076,0,1,1,3.076,3.077A3.076,3.076,0,0,1,340.432,2868.373Z" fill="#696969"/>
    <path id="Path_582" data-name="Path 582" d="M221.078,2871.113h6.292c.427,0,.942-.011,1.345-.031,8.613-.445,12.2-5.543,12.2-11.428,0-7.352-4.959-11.47-13.517-11.47-2.2,0-4.149.074-6.317.257Zm8.044-4.49c-.231.019-.579.028-.8.028h-1.764V2852.8c.61-.054,1.385-.09,1.9-.09,3.233,0,6.677,2.1,6.677,6.942C235.137,2864.708,231.9,2866.394,229.122,2866.623Z" fill="#696969"/>
  </g>
</svg>
