<svg xmlns="http://www.w3.org/2000/svg" width="134.736" height="44.416" viewBox="0 0 134.736 44.416">
  <g id="Group_185" data-name="Group 185" transform="translate(-430.275 -2829.901)">
    <g id="Group_184" data-name="Group 184">
      <g id="Group_183" data-name="Group 183">
        <g id="Group_182" data-name="Group 182">
          <g id="Group_179" data-name="Group 179">
            <g id="Group_178" data-name="Group 178">
              <g id="Group_177" data-name="Group 177">
                <g id="Group_175" data-name="Group 175" style="isolation: isolate">
                  <path id="Path_583" data-name="Path 583" d="M435.523,2850.551a.7.7,0,0,0,.1-.239.631.631,0,0,0-.172-.457,1.851,1.851,0,0,0-1.409-.648,1.727,1.727,0,0,0-1.481,1.369.97.97,0,0,0,1.1,1.157A3.15,3.15,0,0,0,435.523,2850.551Z" fill="#696969"/>
                  <path id="Path_584" data-name="Path 584" d="M442.63,2849.6c.052-.41-.423-.78-1.47-1.157-3.149-1.132-5.006-3.951-5.622-8.245l0-.041-.026-.023c-.147-.137-.339-.273-.53-.108-.412.347-.147,1.842.841,6.038l.385,1.655a6.5,6.5,0,0,1,.155,2.426,8.652,8.652,0,0,1-.877,2.56l-.913,1.854c-2.436,4.925-3.248,6.745-2.914,7.08.158.157.419-.044.627-.236l.038-.033c.01-.023.019-.047.019-.047a28.161,28.161,0,0,1,2.164-4.271,15.751,15.751,0,0,1,6.328-6,4.361,4.361,0,0,0,1.7-1.185A.629.629,0,0,0,442.63,2849.6Z" fill="#696969"/>
                  <path id="Path_585" data-name="Path 585" d="M464.337,2841.037s.03,0,.058,0,.056-.024.056-.024a1.453,1.453,0,0,0,.625-.42.325.325,0,0,0,.054-.2c-.045-.6-2.252-.676-8.119-.578l-2.107.03a6.312,6.312,0,0,1-2.587-.4,4.772,4.772,0,0,1-1.794-1.481l-1.048-1.316c-2.623-3.327-3.6-4.4-4.089-4.095a.373.373,0,0,0-.133.132.9.9,0,0,0-.081.53l0,.044a.353.353,0,0,0,.026.027,10.734,10.734,0,0,1,2.981,10.526c-.309,1.312-.3,2,.031,2.173s1-.182,2.12-1.115C453.87,2841.914,458.486,2840.6,464.337,2841.037Z" fill="#696969"/>
                  <path id="Path_586" data-name="Path 586" d="M454.879,2835.176a1.921,1.921,0,0,0-2.047,1.016c-.482.766-.553,2.239-.113,2.426s1.9-.727,2.388-1.51C455.622,2836.29,455.516,2835.422,454.879,2835.176Z" fill="#696969"/>
                  <path id="Path_587" data-name="Path 587" d="M446.8,2862.905l1.466-1.815a8.892,8.892,0,0,1,2.28-2.114,8.123,8.123,0,0,1,2.886-.96l2.274-.374c6.306-1.013,8.675-1.513,8.772-2.205.046-.32-.331-.471-.665-.568l-.058-.016c-.032.006-.063.014-.063.014-6.283,1.6-11.013.987-14.2-1.621-.977-.8-1.606-1.052-1.989-.812a.7.7,0,0,0-.209.22,4.216,4.216,0,0,0-.283,2.143,16.283,16.283,0,0,1-2.759,9.182,26.887,26.887,0,0,1-3.2,4.1l-.036.042c-.01.026-.018.053-.018.053-.093.317-.169.7.056.838C441.539,2869.3,442.972,2867.678,446.8,2862.905Z" fill="#696969"/>
                  <path id="Path_588" data-name="Path 588" d="M450.69,2862.662a1.721,1.721,0,0,0,1.045.962,1.338,1.338,0,0,0,1.064-.118,1.6,1.6,0,0,0,.7-.9,2.052,2.052,0,0,0-.1-1.521c-.4-.847-1.835-1.65-2.359-1.34a.674.674,0,0,0-.2.219,1.8,1.8,0,0,0-.166.363A3.752,3.752,0,0,0,450.69,2862.662Z" fill="#696969"/>
                </g>
                <g id="Group_176" data-name="Group 176" style="isolation: isolate">
                  <path id="Path_589" data-name="Path 589" d="M477.868,2846.859a.215.215,0,0,0,.085-.162.17.17,0,0,0-.091-.147c-.42-.259-9.629-5.851-17.381-3.835a.253.253,0,0,0-.15.108.2.2,0,0,0-.029.087.148.148,0,0,0,.149.16c5.126.363,10.121,3.112,11.6,3.989l.246.145-.249.188c-1.5,1.129-6.7,4.839-12.049,6.191a.225.225,0,0,0-.174.205.171.171,0,0,0,.168.176C467.96,2854.669,477.454,2847.187,477.868,2846.859Z" fill="#696969"/>
                  <path id="Path_590" data-name="Path 590" d="M445.434,2836.15a.19.19,0,0,0,.077-.2c-1.511-4.888-7.973-6-8.231-6.046a.139.139,0,0,0-.108.033.2.2,0,0,0-.077.107c-.1.314-2.346,7.859.272,11.777a.117.117,0,0,0,.171.016.2.2,0,0,0,.089-.194,23.588,23.588,0,0,1,.685-8.99l.051-.2.161.038a14.155,14.155,0,0,1,6.717,3.66A.145.145,0,0,0,445.434,2836.15Z" fill="#696969"/>
                  <path id="Path_591" data-name="Path 591" d="M442.131,2864.328a.2.2,0,0,0-.04-.238h0a.162.162,0,0,0-.217.04,27.344,27.344,0,0,1-8.995,6.267l-.2.084.011-.252a34.7,34.7,0,0,1,2.236-11.008.17.17,0,0,0-.039-.207.151.151,0,0,0-.192.053c-4.154,5.213-4.408,14.64-4.417,15.057a.18.18,0,0,0,.049.135.113.113,0,0,0,.119.023C430.778,2874.161,439,2871.124,442.131,2864.328Z" fill="#696969"/>
                </g>
              </g>
            </g>
          </g>
          <g id="Group_181" data-name="Group 181">
            <path id="Path_592" data-name="Path 592" d="M497.543,2858.76h2.574v2.412h.057a5.17,5.17,0,0,1,4.737-2.764c3.737,0,5.407,2.443,5.407,6.524v9.031h-2.669v-7.875c0-3.542-.735-5.262-3.055-5.413-3.03,0-4.386,2.561-4.386,6.252v7.036h-2.665Z" fill="#696969"/>
            <path id="Path_593" data-name="Path 593" d="M522.644,2859.839a8.766,8.766,0,0,1,4.756-1.431c4.13,0,5.795,2.146,5.795,6.28v6.294a24.619,24.619,0,0,0,.121,2.981h-2.5v-1.969h-.048a5.308,5.308,0,0,1-4.482,2.323c-3.112,0-5.292-1.429-5.292-4.737,0-3.819,3.961-5.009,6.713-5.009,1.047,0,1.775,0,2.826.068,0-2.626-.9-3.964-3.561-3.964a6.539,6.539,0,0,0-4.192,1.547l-.14-2.383m7.893,6.88c-.569,0-1.127-.06-1.7-.06-1.437,0-5.011.238-5.011,2.921a2.6,2.6,0,0,0,2.692,2.48,3.74,3.74,0,0,0,4.019-4Z" fill="#696969"/>
            <path id="Path_594" data-name="Path 594" d="M543.673,2861.211a4.758,4.758,0,0,0-1.1-.117c-2.508,0-4.147,2.385-4.147,6.2v6.665h-2.806v-15.081h2.63v2.481h.054a4.632,4.632,0,0,1,3.966-2.714,7.272,7.272,0,0,1,1.4.118Z" fill="#696969"/>
            <path id="Path_595" data-name="Path 595" d="M557.677,2858.408c4.383,0,7.334,3.336,7.334,7.959,0,4.348-3,7.95-7.334,7.95-4.368,0-7.36-3.6-7.36-7.95,0-4.623,2.936-7.959,7.36-7.959m0,13.652c3.11,0,4.5-2.978,4.5-5.693,0-2.893-1.673-5.692-4.5-5.692-2.863,0-4.53,2.8-4.53,5.692C553.147,2869.082,554.529,2872.06,557.677,2872.06Z" fill="#696969"/>
            <path id="Path_596" data-name="Path 596" d="M519.926,2858.76h-3.9v-4.411l-2.79.894v3.5l-2.3,2.294h2.3v8.87c0,3.041,1.784,4.408,4.677,4.408a8.455,8.455,0,0,0,2.26-.377v-2.354a3.448,3.448,0,0,1-1.78.474,2.421,2.421,0,0,1-2.367-2.718v-8.315h3.9Z" fill="#696969"/>
            <rect id="Rectangle_136" data-name="Rectangle 136" width="2.8" height="15.204" transform="translate(545.413 2858.76)" fill="#696969"/>
            <g id="Group_180" data-name="Group 180">
              <path id="Path_597" data-name="Path 597" d="M546.808,2856.733a1.715,1.715,0,1,0-1.719-1.716A1.711,1.711,0,0,0,546.808,2856.733Z" fill="#696969"/>
            </g>
            <path id="Path_598" data-name="Path 598" d="M485.913,2852.808c6.012,0,9.526,4.585,9.526,10.749,0,6.32-3.488,10.76-9.526,10.76s-9.509-4.44-9.509-10.76c0-6.164,3.513-10.749,9.509-10.749m0,18.891c4.563,0,6.52-4,6.52-8.142,0-4.225-2.153-8.159-6.52-8.132-4.352-.027-6.505,3.907-6.505,8.132C479.408,2867.7,481.367,2871.7,485.913,2871.7Z" fill="#696969"/>
          </g>
        </g>
      </g>
    </g>
  </g>
</svg>
