<svg xmlns="http://www.w3.org/2000/svg" width="151.24" height="26.9" viewBox="0 0 151.24 26.9">
  <g id="Group_186" data-name="Group 186" transform="translate(-782.175 -2846.281)">
    <path id="Path_600" data-name="Path 600" d="M866.086,2853.732v-2.9H855.755v14.9h10.331v-3.022h-6.147v-3.3h5.114v-2.893h-5.114v-2.786Z" fill="#696969" fill-rule="evenodd"/>
    <path id="Path_601" data-name="Path 601" d="M884.309,2862.8h-6.456v-11.963h-4.236v14.9h10.692v-2.94Z" fill="#696969" fill-rule="evenodd"/>
    <path id="Path_602" data-name="Path 602" d="M918.414,2856.514c-2.858-.645-3.856-.717-3.856-1.856,0-1.055,1.414-1.384,2.231-1.384a9.813,9.813,0,0,1,4.458,1.122l1.152-2.743a12.206,12.206,0,0,0-5.713-1.254c-3.943,0-6.585,1.6-6.7,4.715-.113,2.841,2.2,3.905,4.323,4.346,2.048.422,4.126.784,4.167,2,.039,1.122-.97,1.6-2.875,1.6a13.161,13.161,0,0,1-5.077-1.267l-.978,2.979a14.935,14.935,0,0,0,5.9,1.271c2.8,0,4.84-.437,6.346-1.849a4.285,4.285,0,0,0,1.383-3.256c0-2.356-1.467-3.684-4.76-4.427Z" fill="#696969" fill-rule="evenodd"/>
    <path id="Path_603" data-name="Path 603" d="M849.747,2853.776v-2.942h-13v2.942h4.391v11.961h4.21v-11.961Z" fill="#696969" fill-rule="evenodd"/>
    <path id="Path_604" data-name="Path 604" d="M898.755,2850.834v9.468a7.835,7.835,0,0,1-.044,1.235c-.135.9-1.01,1.426-2.406,1.445a2.5,2.5,0,0,1-2.141-.862,3.13,3.13,0,0,1-.265-1.572v-9.714h-4.391V2861.1a3.913,3.913,0,0,0,.833,2.877c1.06,1.326,3.127,2.023,5.973,2.023h.154c3.811,0,5.779-1.487,6.349-2.877a4.955,4.955,0,0,0,.3-2.353v-9.941Z" fill="#696969" fill-rule="evenodd"/>
    <path id="Path_605" data-name="Path 605" d="M838.734,2846.754l-24.629,4.9v1.717l.079-.02c16.27-3.955,24.55-6.333,24.617-6.349a.133.133,0,0,0,.111-.157.138.138,0,0,0-.178-.094Z" fill="#696969" fill-rule="evenodd"/>
    <path id="Path_606" data-name="Path 606" d="M818.064,2848.125c.38-.246.489-.094.378.183-.181.443-1.015,3.108-7.215,8.2a35.382,35.382,0,0,1-5.1,3.449,53.354,53.354,0,0,1,11.936-11.83Zm.645-1.841c-1.2.069-3.414,1.842-4.63,2.9a58.22,58.22,0,0,0-11.069,12.082,134.01,134.01,0,0,1-19.338,8.281l-.166.057-1.331,3.582.76-.294a184.231,184.231,0,0,0,18.392-8.323,7.9,7.9,0,0,0-.563,2.757,4.686,4.686,0,0,0,.313,1.733,4.1,4.1,0,0,0,2.387,2.308,10.313,10.313,0,0,0,6.677-.11c6.773-2.054,14.8-8.356,16.554-9.608l.066-.047a.132.132,0,0,0,.044-.176.136.136,0,0,0-.184-.034h0l-.087.054c-1.878,1.124-11,6.539-16.924,8.129-3.019.811-5.321.368-6.189-.847a2.585,2.585,0,0,1-.446-1.551,8.766,8.766,0,0,1,1.646-4.407c1-.568,1.927-1.123,2.766-1.649,5.784-3.251,12.447-9.57,12.73-13.427,0-.027,0-.058,0-.086a1.342,1.342,0,0,0-.4-.929,1.285,1.285,0,0,0-1.014-.391Zm-.842,1.534v0Z" fill="#696969" fill-rule="evenodd"/>
    <path id="Path_607" data-name="Path 607" d="M814.024,2851.674l-25.913,5.57-1,2.694,26.993-6.564.042-.01v-1.715l-.122.025Z" fill="#696969" fill-rule="evenodd"/>
    <path id="Path_608" data-name="Path 608" d="M928.245,2853.661a2.3,2.3,0,1,1,2.307,2.365,2.289,2.289,0,0,1-2.307-2.365Zm2.307,2.836a2.831,2.831,0,1,0-2.874-2.836,2.83,2.83,0,0,0,2.874,2.836Zm-.6-2.612h.571l.863,1.413h.551l-.927-1.435a.853.853,0,0,0,.848-.9c0-.645-.385-.929-1.152-.929h-1.245v3.265h.491v-1.413Zm0-.42v-1.013h.673c.35,0,.718.077.718.482,0,.5-.377.531-.8.531Z" fill="#696969" fill-rule="evenodd"/>
  </g>
</svg>
