<svg xmlns="http://www.w3.org/2000/svg" width="141.509" height="55.562" viewBox="0 0 141.509 55.562">
  <g id="Group_198" data-name="Group 198" transform="translate(-1007.513 -2829.233)">
    <g id="Group_196" data-name="Group 196">
      <g id="Group_195" data-name="Group 195">
        <path id="Path_609" data-name="Path 609" d="M1051.7,2853.722h-4.14v-3.351h12.1v3.351h-4.14v10.448H1051.7Z" fill="#696969"/>
        <path id="Path_610" data-name="Path 610" d="M1060.066,2857.3v-.04a7.437,7.437,0,0,1,14.864-.039v.039a7.437,7.437,0,0,1-14.864.04Zm10.96,0v-.04a3.586,3.586,0,0,0-3.548-3.725,3.517,3.517,0,0,0-3.489,3.686v.039a3.583,3.583,0,0,0,3.529,3.726A3.52,3.52,0,0,0,1071.026,2857.3Z" fill="#696969"/>
        <path id="Path_611" data-name="Path 611" d="M1076.759,2850.361h6.525a6.03,6.03,0,0,1,4.494,1.5,4.276,4.276,0,0,1,1.222,3.213v.04a4.363,4.363,0,0,1-2.838,4.238l3.292,4.81h-4.416l-2.779-4.179h-1.676v4.179h-3.824Zm6.348,6.623c1.3,0,2.05-.63,2.05-1.636v-.039c0-1.084-.789-1.636-2.07-1.636h-2.5v3.311Z" fill="#696969"/>
        <path id="Path_612" data-name="Path 612" d="M1090.232,2857.3v-.04a7.437,7.437,0,0,1,14.864-.039v.039a7.437,7.437,0,0,1-14.864.04Zm10.96,0v-.04a3.586,3.586,0,0,0-3.548-3.725,3.516,3.516,0,0,0-3.489,3.686v.039a3.583,3.583,0,0,0,3.529,3.726A3.52,3.52,0,0,0,1101.192,2857.3Z" fill="#696969"/>
        <path id="Path_613" data-name="Path 613" d="M1032.926,2867.6h3.825v5.165h4.908V2867.6h3.824v13.8h-3.824v-5.243h-4.908v5.243h-3.825Z" fill="#696969"/>
        <path id="Path_614" data-name="Path 614" d="M1051.665,2876.234l-5.243-8.634h4.356l2.839,5.027,2.858-5.027h4.278l-5.244,8.575v5.223h-3.844Z" fill="#696969"/>
        <path id="Path_615" data-name="Path 615" d="M1062,2867.6h5.323c4.928,0,7.786,2.838,7.786,6.82v.04c0,3.982-2.9,6.938-7.865,6.938H1062Zm5.382,10.408c2.287,0,3.8-1.262,3.8-3.489v-.039c0-2.208-1.517-3.49-3.8-3.49h-1.557v7.018Z" fill="#696969"/>
        <path id="Path_616" data-name="Path 616" d="M1076.759,2867.6h6.525a6.025,6.025,0,0,1,4.494,1.5,4.274,4.274,0,0,1,1.222,3.213v.039a4.362,4.362,0,0,1-2.838,4.238l3.292,4.81h-4.416l-2.779-4.179h-1.676v4.179h-3.824Zm6.348,6.623c1.3,0,2.05-.631,2.05-1.636v-.039c0-1.085-.789-1.637-2.07-1.637h-2.5v3.312Z" fill="#696969"/>
        <path id="Path_617" data-name="Path 617" d="M1090.232,2874.538v-.039a7.437,7.437,0,0,1,14.864-.039v.039a7.437,7.437,0,0,1-14.864.039Zm10.96,0v-.039a3.586,3.586,0,0,0-3.548-3.726,3.517,3.517,0,0,0-3.489,3.687v.039a3.583,3.583,0,0,0,3.529,3.726A3.521,3.521,0,0,0,1101.192,2874.538Z" fill="#696969"/>
        <g id="Group_194" data-name="Group 194">
          <g id="Group_193" data-name="Group 193">
            <g id="Group_187" data-name="Group 187">
              <path id="Path_618" data-name="Path 618" d="M1007.513,2851.332l17.373-2.755-3.071,4.883Z" fill="#696969"/>
            </g>
            <g id="Group_188" data-name="Group 188">
              <path id="Path_619" data-name="Path 619" d="M1015.869,2832.716l12,12.862-5.765.184Z" fill="#696969"/>
            </g>
            <g id="Group_189" data-name="Group 189">
              <path id="Path_620" data-name="Path 620" d="M1035.976,2829.233l-3.953,17.14-3.377-4.677Z" fill="#696969"/>
            </g>
            <g id="Group_190" data-name="Group 190">
              <path id="Path_621" data-name="Path 621" d="M1050.107,2843.954l-16.42,6.308,1.989-5.415Z" fill="#696969"/>
            </g>
            <g id="Group_191" data-name="Group 191">
              <path id="Path_622" data-name="Path 622" d="M1045.805,2863.9l-14.412-10.086,5.6-1.379Z" fill="#696969"/>
            </g>
            <g id="Group_192" data-name="Group 192">
              <path id="Path_623" data-name="Path 623" d="M1026.861,2871.489l.3-17.587,4.275,3.873Z" fill="#696969"/>
            </g>
          </g>
        </g>
        <path id="Path_624" data-name="Path 624" d="M1023.59,2856.23" fill="#696969"/>
        <path id="Path_625" data-name="Path 625" d="M1024.345,2856.73a.541.541,0,0,0-.541-.541,1.042,1.042,0,0,0-.189.032,1.248,1.248,0,0,0-.3.157c-1.524,1.028-6.069,6.322-8.533,11.159a38.839,38.839,0,0,0-4.168,17.258,54.519,54.519,0,0,1,5.324-15.906,53.174,53.174,0,0,1,7.71-11.155c.325-.361.494-.549.587-.677A.539.539,0,0,0,1024.345,2856.73Z" fill="#696969"/>
        <path id="Path_626" data-name="Path 626" d="M1125.8,2853.722h-4.139v-3.351h12.1v3.351h-4.14v10.448H1125.8Z" fill="#696969"/>
        <path id="Path_627" data-name="Path 627" d="M1134.159,2857.3v-.04a7.437,7.437,0,0,1,14.863-.039v.039a7.437,7.437,0,0,1-14.863.04Zm10.96,0v-.04a3.586,3.586,0,0,0-3.548-3.725,3.517,3.517,0,0,0-3.49,3.686v.039a3.583,3.583,0,0,0,3.529,3.726A3.521,3.521,0,0,0,1145.119,2857.3Z" fill="#696969"/>
        <path id="Path_628" data-name="Path 628" d="M1106.925,2850.361h3.568l5.677,7.293v-7.293h3.785v13.8H1116.6l-5.894-7.57v7.57h-3.785Z" fill="#696969"/>
      </g>
    </g>
    <g id="Group_197" data-name="Group 197">
      <path id="Path_629" data-name="Path 629" d="M1106.927,2869.268v-.011a1.892,1.892,0,1,1,3.784-.01v.01a1.892,1.892,0,1,1-3.784.011Zm3.566-.011v-.01a1.664,1.664,0,0,0-1.674-1.686,1.681,1.681,0,0,0-1.675,1.7v.011a1.675,1.675,0,1,0,3.349-.011Zm-2.457-1.021h.923c.458,0,.8.206.8.652a.6.6,0,0,1-.435.608l.5.707h-.576l-.424-.619h-.3v.619h-.479Zm.891.956c.218,0,.338-.109.338-.271s-.131-.273-.338-.273h-.412v.544Z" fill="#696969"/>
    </g>
  </g>
</svg>
