<svg xmlns="http://www.w3.org/2000/svg" width="153.87" height="153.87" viewBox="0 0 153.87 153.87">
  <g id="icon-derisk-design" transform="translate(-22.743 -1902.072)">
    <ellipse id="Ellipse_117" data-name="Ellipse 117" cx="76.935" cy="76.935" rx="76.935" ry="76.935" transform="translate(22.743 1902.072)" fill="#a6ddeb" opacity="0.18"/>
    <g id="Group_370" data-name="Group 370" transform="translate(53.733 1945.851)">
      <path id="Path_1124" data-name="Path 1124" d="M70.889,1981.763a4.494,4.494,0,0,1,0-5.738c4.718-5.707,15.563-16.883,29.263-16.883s24.545,11.176,29.263,16.883a4.494,4.494,0,0,1,0,5.738c-4.718,5.707-15.563,16.883-29.263,16.883S75.608,1987.47,70.889,1981.763Z" transform="translate(-53.398 -1944.164)" fill="none" stroke="#18b5d4" stroke-miterlimit="10" stroke-width="1.5"/>
      <circle id="Ellipse_118" data-name="Ellipse 118" cx="8.883" cy="8.883" r="8.883" transform="translate(37.872 25.848)" fill="none" stroke="#18b5d4" stroke-miterlimit="10" stroke-width="1.5"/>
      <line id="Line_93" data-name="Line 93" y1="6.66" transform="translate(46.755)" fill="none" stroke="#18b5d4" stroke-linecap="round" stroke-miterlimit="10" stroke-width="1.5"/>
      <line id="Line_94" data-name="Line 94" y1="6.66" transform="translate(46.755 62.802)" fill="none" stroke="#18b5d4" stroke-linecap="round" stroke-miterlimit="10" stroke-width="1.5"/>
      <line id="Line_95" data-name="Line 95" x1="5.379" y1="4.374" transform="translate(15.382 11.087)" fill="none" stroke="#18b5d4" stroke-linecap="round" stroke-miterlimit="10" stroke-width="1.5"/>
      <line id="Line_96" data-name="Line 96" x1="5.819" y1="4.814" transform="translate(70.811 55.094)" fill="none" stroke="#18b5d4" stroke-linecap="round" stroke-miterlimit="10" stroke-width="1.5"/>
      <line id="Line_97" data-name="Line 97" y1="4.475" x2="5.48" transform="translate(70.811 10.986)" fill="none" stroke="#18b5d4" stroke-linecap="round" stroke-miterlimit="10" stroke-width="1.5"/>
      <line id="Line_98" data-name="Line 98" y1="4.947" x2="5.953" transform="translate(15.713 55.909)" fill="none" stroke="#18b5d4" stroke-linecap="round" stroke-miterlimit="10" stroke-width="1.5"/>
      <line id="Line_99" data-name="Line 99" x1="6.66" transform="translate(0 34.731)" fill="none" stroke="#18b5d4" stroke-linecap="round" stroke-miterlimit="10" stroke-width="1.5"/>
      <line id="Line_100" data-name="Line 100" x1="6.66" transform="translate(86.849 34.731)" fill="none" stroke="#18b5d4" stroke-linecap="round" stroke-miterlimit="10" stroke-width="1.5"/>
    </g>
  </g>
</svg>
