<svg xmlns="http://www.w3.org/2000/svg" width="153.87" height="153.87" viewBox="0 0 153.87 153.87">
  <g id="icon-understand-use" transform="translate(-197 -1895.369)">
    <ellipse id="Ellipse_113" data-name="Ellipse 113" cx="76.935" cy="76.935" rx="76.935" ry="76.935" transform="translate(197 1895.369)" fill="#a6ddeb" opacity="0.18"/>
    <g id="Group_369" data-name="Group 369" transform="translate(234.047 1931.968)">
      <circle id="Ellipse_114" data-name="Ellipse 114" cx="24.761" cy="24.761" r="24.761" transform="translate(13.567 13.976)" fill="none" stroke="#18b5d4" stroke-miterlimit="10" stroke-width="1.5"/>
      <circle id="Ellipse_115" data-name="Ellipse 115" cx="18.635" cy="18.635" r="18.635" transform="translate(19.693 20.101)" fill="none" stroke="#18b5d4" stroke-miterlimit="10" stroke-width="1.5"/>
      <rect id="Rectangle_216" data-name="Rectangle 216" width="7.519" height="4.708" transform="translate(53.315 58.836) rotate(-45)" fill="none" stroke="#18b5d4" stroke-miterlimit="10" stroke-width="1.5"/>
      <path id="Rectangle_217" data-name="Rectangle 217" d="M0,0H10.264a0,0,0,0,1,0,0V18.541a5.132,5.132,0,0,1-5.132,5.132h0A5.132,5.132,0,0,1,0,18.541V0A0,0,0,0,1,0,0Z" transform="translate(55.674 63.136) rotate(-45)" fill="none" stroke="#18b5d4" stroke-miterlimit="10" stroke-width="1.5"/>
      <path id="Path_1123" data-name="Path 1123" d="M264.532,1963.337l13.83-5.691-5.921,12.823-13.2,5.755Z" transform="translate(-230.055 -1928.013)" fill="none" stroke="#18b5d4" stroke-linejoin="round" stroke-width="1.5"/>
      <line id="Line_86" data-name="Line 86" y1="5.732" transform="translate(38.327)" fill="none" stroke="#18b5d4" stroke-linecap="round" stroke-miterlimit="10" stroke-width="1.5"/>
      <line id="Line_87" data-name="Line 87" y1="5.732" transform="translate(38.327 70.923)" fill="none" stroke="#18b5d4" stroke-linecap="round" stroke-miterlimit="10" stroke-width="1.5"/>
      <line id="Line_88" data-name="Line 88" x1="4.053" y1="4.053" transform="translate(11.226 11.226)" fill="none" stroke="#18b5d4" stroke-linecap="round" stroke-miterlimit="10" stroke-width="1.5"/>
      <line id="Line_89" data-name="Line 89" x1="5.732" transform="translate(0 38.327)" fill="none" stroke="#18b5d4" stroke-linecap="round" stroke-miterlimit="10" stroke-width="1.5"/>
      <line id="Line_90" data-name="Line 90" x1="5.732" transform="translate(70.923 38.327)" fill="none" stroke="#18b5d4" stroke-linecap="round" stroke-miterlimit="10" stroke-width="1.5"/>
      <line id="Line_91" data-name="Line 91" x1="4.053" y2="4.053" transform="translate(11.226 61.376)" fill="none" stroke="#18b5d4" stroke-linecap="round" stroke-miterlimit="10" stroke-width="1.5"/>
      <line id="Line_92" data-name="Line 92" x1="4.053" y2="4.053" transform="translate(61.376 11.226)" fill="none" stroke="#18b5d4" stroke-linecap="round" stroke-miterlimit="10" stroke-width="1.5"/>
      <circle id="Ellipse_116" data-name="Ellipse 116" cx="1.677" cy="1.677" r="1.677" transform="translate(36.929 37.217)" fill="none" stroke="#18b5d4" stroke-linejoin="round" stroke-width="1.5"/>
    </g>
  </g>
</svg>
