  <svg width="726" class="svg-pad" height="194" viewBox="0 0 726 194" fill="none" xmlns="http://www.w3.org/2000/svg">
                                        <mask id="mask0" mask-type="alpha" maskUnits="userSpaceOnUse" x="0" y="0" width="726" height="194">
                                            <g clip-path="url(#clip0)">
                                                <path
                                                    d="M725.686 0V67.945C725.669 82.2551 719.977 95.9742 709.858 106.093C699.739 116.211 686.019 121.903 671.709 121.919H52.719C50.2493 121.901 47.8005 122.372 45.5136 123.304C43.2268 124.237 41.147 125.613 39.3943 127.353C37.6416 129.093 36.2505 131.162 35.3012 133.442C34.3519 135.722 33.8632 138.168 33.8632 140.638C33.8632 143.107 34.3519 145.553 35.3012 147.833C36.2505 150.113 37.6416 152.182 39.3943 153.922C41.147 155.662 43.2268 157.038 45.5136 157.971C47.8005 158.903 50.2493 159.374 52.719 159.356H70.684C75.1927 159.356 79.5167 161.147 82.7048 164.335C85.8929 167.523 87.684 171.847 87.684 176.356C87.684 180.865 85.8929 185.189 82.7048 188.377C79.5167 191.565 75.1927 193.356 70.684 193.356H52.719C45.7766 193.386 38.8966 192.045 32.4739 189.409C26.0512 186.773 20.2124 182.895 15.2927 177.997C10.3729 173.098 6.46913 167.276 3.80538 160.865C1.14162 154.454 -0.229614 147.58 -0.229614 140.638C-0.229614 133.695 1.14162 126.821 3.80538 120.41C6.46913 113.999 10.3729 108.177 15.2927 103.278C20.2124 98.3801 26.0512 94.5017 32.4739 91.8659C38.8966 89.2301 45.7766 87.8888 52.719 87.919H671.709C677.005 87.9129 682.083 85.8063 685.828 82.0612C689.573 78.3161 691.68 73.2384 691.686 67.942V0H725.686Z"
                                                    fill="#1AB5D5" />
                                                <path
                                                    d="M70.686 182.358C69.698 182.362 68.7245 182.121 67.8533 181.655C66.9821 181.189 66.2407 180.513 65.696 179.689C65.4753 179.363 65.2909 179.014 65.146 178.648C64.9919 178.288 64.8779 177.913 64.806 177.528C64.646 176.757 64.646 175.96 64.806 175.189C64.8797 174.804 64.9937 174.429 65.146 174.068C65.2934 173.704 65.4777 173.355 65.696 173.028C65.9149 172.703 66.1625 172.399 66.436 172.119C67.1362 171.423 67.9966 170.909 68.9416 170.623C69.8866 170.338 70.8873 170.288 71.856 170.479C72.2401 170.553 72.6154 170.666 72.976 170.818C73.3375 170.972 73.6854 171.156 74.016 171.369C74.6705 171.811 75.2341 172.374 75.676 173.028C75.8904 173.357 76.0745 173.705 76.226 174.068C76.3737 174.43 76.4876 174.806 76.566 175.189C76.646 175.574 76.6862 175.965 76.686 176.358C76.6833 177.949 76.0505 179.474 74.926 180.599C74.6482 180.879 74.3434 181.13 74.016 181.349C73.689 181.567 73.3405 181.751 72.976 181.898C72.616 182.051 72.2405 182.165 71.856 182.238C71.471 182.317 71.079 182.358 70.686 182.358V182.358Z"
                                                    stroke="white" stroke-miterlimit="10" />
                                                <path
                                                    d="M19.806 166.289H19.816C18.8365 165.036 18.3947 163.445 18.5879 161.866C18.781 160.287 19.5932 158.849 20.846 157.869V157.869C22.1008 156.889 23.6933 156.447 25.2739 156.64C26.8544 156.833 28.2938 157.645 29.276 158.898V158.909C30.2521 160.164 30.6907 161.756 30.4958 163.334C30.3008 164.912 29.4882 166.349 28.236 167.329V167.329C27.1809 168.15 25.8828 168.597 24.546 168.599V168.599C23.6324 168.599 22.7309 168.391 21.9097 167.99C21.0885 167.59 20.3691 167.008 19.806 166.289V166.289ZM22.476 120.709C21.8995 120.172 21.4344 119.527 21.1073 118.81C20.7803 118.093 20.5976 117.319 20.5697 116.531C20.5419 115.744 20.6694 114.958 20.945 114.22C21.2206 113.482 21.6389 112.806 22.176 112.229V112.219C22.7131 111.642 23.3585 111.177 24.0753 110.85C24.7922 110.523 25.5664 110.341 26.3538 110.313C27.1413 110.285 27.9265 110.412 28.6647 110.688C29.4028 110.964 30.0795 111.382 30.656 111.919V111.919C31.82 113.004 32.5055 114.506 32.5618 116.096C32.618 117.686 32.0404 119.234 30.956 120.398V120.398C30.396 121.003 29.7167 121.484 28.9612 121.813C28.2056 122.142 27.39 122.311 26.566 122.309C25.0495 122.311 23.5884 121.74 22.476 120.709V120.709ZM622.415 104.919C622.415 103.328 623.047 101.802 624.172 100.676C625.298 99.5511 626.824 98.919 628.415 98.919C630.006 98.919 631.532 99.5511 632.658 100.676C633.783 101.802 634.415 103.328 634.415 104.919C634.415 106.51 633.783 108.036 632.658 109.162C631.532 110.287 630.006 110.919 628.415 110.919C627.627 110.92 626.846 110.765 626.118 110.464C625.389 110.163 624.728 109.721 624.17 109.164C623.613 108.606 623.171 107.945 622.87 107.216C622.569 106.488 622.414 105.707 622.415 104.919ZM571.995 104.919C571.995 103.328 572.627 101.802 573.752 100.676C574.878 99.5511 576.404 98.919 577.995 98.919V98.919C579.586 98.919 581.112 99.5511 582.238 100.676C583.363 101.802 583.995 103.328 583.995 104.919V104.919C583.995 106.51 583.363 108.036 582.238 109.162C581.112 110.287 579.586 110.919 577.995 110.919V110.919C577.207 110.92 576.426 110.765 575.698 110.464C574.97 110.163 574.308 109.721 573.751 109.163C573.194 108.606 572.752 107.944 572.451 107.216C572.15 106.488 571.995 105.707 571.996 104.919H571.995ZM521.575 104.919C521.575 103.329 522.206 101.804 523.329 100.68C524.452 99.5546 525.976 98.9214 527.566 98.919C529.158 98.9179 530.686 99.5495 531.813 100.675C532.94 101.8 533.574 103.327 533.575 104.919V104.919C533.575 105.708 533.42 106.489 533.117 107.217C532.815 107.946 532.373 108.608 531.814 109.165C531.256 109.722 530.594 110.164 529.865 110.465C529.136 110.766 528.355 110.92 527.566 110.919C526.778 110.919 525.999 110.764 525.271 110.462C524.544 110.16 523.883 109.718 523.327 109.161C522.77 108.604 522.329 107.942 522.028 107.214C521.728 106.487 521.574 105.707 521.575 104.919V104.919ZM471.146 104.919C471.146 103.328 471.778 101.802 472.903 100.676C474.029 99.5511 475.555 98.919 477.146 98.919C478.737 98.919 480.263 99.5511 481.389 100.676C482.514 101.802 483.146 103.328 483.146 104.919C483.147 105.707 482.992 106.488 482.691 107.216C482.39 107.945 481.948 108.606 481.391 109.164C480.833 109.721 480.172 110.163 479.443 110.464C478.715 110.765 477.934 110.92 477.146 110.919V110.919C476.358 110.919 475.578 110.764 474.85 110.462C474.122 110.161 473.461 109.719 472.903 109.162C472.346 108.605 471.904 107.943 471.603 107.215C471.301 106.487 471.146 105.707 471.146 104.919V104.919ZM420.726 104.919C420.726 103.328 421.358 101.802 422.483 100.676C423.609 99.5511 425.135 98.919 426.726 98.919V98.919C428.317 98.919 429.843 99.5511 430.969 100.676C432.094 101.802 432.726 103.328 432.726 104.919V104.919C432.727 105.707 432.572 106.488 432.271 107.216C431.97 107.945 431.528 108.606 430.971 109.164C430.413 109.721 429.752 110.163 429.023 110.464C428.295 110.765 427.514 110.92 426.726 110.919V110.919C425.938 110.919 425.158 110.764 424.43 110.462C423.702 110.161 423.04 109.719 422.483 109.162C421.926 108.605 421.484 107.943 421.183 107.215C420.881 106.487 420.726 105.707 420.726 104.919V104.919ZM370.306 104.919C370.306 103.328 370.938 101.802 372.063 100.676C373.189 99.5511 374.715 98.919 376.306 98.919C377.897 98.919 379.423 99.5511 380.549 100.676C381.674 101.802 382.306 103.328 382.306 104.919C382.307 105.707 382.152 106.488 381.851 107.216C381.55 107.945 381.108 108.606 380.551 109.164C379.993 109.721 379.332 110.163 378.603 110.464C377.875 110.765 377.094 110.92 376.306 110.919V110.919C374.715 110.919 373.189 110.287 372.063 109.162C370.938 108.036 370.306 106.51 370.306 104.919ZM319.886 104.919C319.886 103.328 320.518 101.802 321.643 100.676C322.769 99.5511 324.295 98.919 325.886 98.919V98.919C327.477 98.919 329.003 99.5511 330.129 100.676C331.254 101.802 331.886 103.328 331.886 104.919V104.919C331.887 105.707 331.732 106.488 331.431 107.216C331.13 107.945 330.688 108.606 330.131 109.164C329.573 109.721 328.912 110.163 328.183 110.464C327.455 110.765 326.674 110.92 325.886 110.919V110.919C324.295 110.919 322.769 110.287 321.643 109.162C320.518 108.036 319.886 106.51 319.886 104.919V104.919ZM269.466 104.919C269.466 103.328 270.098 101.802 271.223 100.676C272.349 99.5511 273.875 98.919 275.466 98.919C277.057 98.919 278.583 99.5511 279.709 100.676C280.834 101.802 281.466 103.328 281.466 104.919C281.467 105.707 281.312 106.488 281.011 107.216C280.71 107.945 280.268 108.606 279.711 109.164C279.153 109.721 278.492 110.163 277.763 110.464C277.035 110.765 276.254 110.92 275.466 110.919V110.919C273.875 110.919 272.349 110.287 271.223 109.162C270.098 108.036 269.466 106.51 269.466 104.919ZM219.046 104.919C219.046 103.328 219.678 101.802 220.803 100.676C221.929 99.5511 223.455 98.919 225.046 98.919V98.919C226.637 98.919 228.163 99.5511 229.289 100.676C230.414 101.802 231.046 103.328 231.046 104.919V104.919C231.046 106.51 230.414 108.036 229.289 109.162C228.163 110.287 226.637 110.919 225.046 110.919V110.919C223.455 110.919 221.929 110.287 220.803 109.162C219.678 108.036 219.046 106.51 219.046 104.919V104.919ZM168.626 104.919C168.626 103.328 169.258 101.802 170.383 100.676C171.509 99.5511 173.035 98.919 174.626 98.919V98.919C176.217 98.919 177.743 99.5511 178.869 100.676C179.994 101.802 180.626 103.328 180.626 104.919C180.626 106.51 179.994 108.036 178.869 109.162C177.743 110.287 176.217 110.919 174.626 110.919C173.035 110.919 171.509 110.287 170.383 109.162C169.258 108.036 168.626 106.51 168.626 104.919ZM118.206 104.919C118.206 103.328 118.838 101.802 119.963 100.676C121.089 99.5511 122.615 98.919 124.206 98.919C125.797 98.919 127.323 99.5511 128.449 100.676C129.574 101.802 130.206 103.328 130.206 104.919C130.206 106.51 129.574 108.036 128.449 109.162C127.323 110.287 125.797 110.919 124.206 110.919C122.615 110.919 121.089 110.287 119.963 109.162C118.838 108.036 118.206 106.51 118.206 104.919ZM67.786 104.919C67.786 103.328 68.4181 101.802 69.5433 100.676C70.6686 99.5511 72.1947 98.919 73.786 98.919C75.3773 98.919 76.9034 99.5511 78.0286 100.676C79.1538 101.802 79.786 103.328 79.786 104.919C79.786 106.51 79.1538 108.036 78.0286 109.162C76.9034 110.287 75.3773 110.919 73.786 110.919C72.9978 110.92 72.2172 110.765 71.4888 110.464C70.7604 110.163 70.0986 109.721 69.5413 109.164C68.984 108.606 68.542 107.945 68.2408 107.216C67.9396 106.488 67.7851 105.707 67.786 104.919V104.919ZM672.896 105.389C672.594 103.827 672.924 102.208 673.815 100.89C674.706 99.5712 676.084 98.6605 677.646 98.358V98.358V98.349C679.208 98.0468 680.826 98.3775 682.145 99.2683C683.463 100.159 684.374 101.537 684.676 103.099V103.099C684.979 104.662 684.649 106.282 683.759 107.603C682.868 108.923 681.489 109.835 679.926 110.139V110.129C679.548 110.208 679.162 110.249 678.776 110.249V110.249C677.385 110.244 676.039 109.757 674.967 108.871C673.895 107.985 673.163 106.754 672.896 105.389V105.389ZM708.596 74.509C707.808 74.4973 707.03 74.3305 706.307 74.018C705.583 73.7056 704.928 73.2537 704.38 72.6882C703.831 72.1227 703.399 71.4546 703.108 70.722C702.818 69.9895 702.674 69.207 702.686 68.419V68.419C702.696 67.6312 702.86 66.8531 703.172 66.1293C703.483 65.4054 703.933 64.7502 704.498 64.201C705.063 63.6519 705.731 63.2198 706.463 62.9294C707.196 62.639 707.978 62.4962 708.766 62.509V62.509C709.555 62.5194 710.334 62.6853 711.058 62.9972C711.783 63.309 712.439 63.7607 712.989 64.3263C713.539 64.892 713.972 65.5605 714.263 66.2937C714.554 67.0268 714.698 67.8102 714.686 68.599L714.676 68.589C714.655 70.1664 714.014 71.6721 712.891 72.78C711.768 73.888 710.254 74.5091 708.676 74.509H708.596Z"
                                                    stroke="white" stroke-miterlimit="10" />
                                                <path
                                                    d="M708.686 23.999C707.096 23.9963 705.571 23.3634 704.446 22.239C704.164 21.9639 703.912 21.6588 703.696 21.329C703.478 21.0056 703.293 20.6604 703.146 20.299C702.993 19.9354 702.879 19.5566 702.806 19.169C702.726 18.7841 702.686 18.3921 702.686 17.999C702.686 16.4077 703.318 14.8816 704.443 13.7564C705.569 12.6312 707.095 11.999 708.686 11.999C710.277 11.999 711.803 12.6312 712.929 13.7564C714.054 14.8816 714.686 16.4077 714.686 17.999C714.68 18.7879 714.524 19.5685 714.226 20.299C714.074 20.6583 713.89 21.0031 713.676 21.329C713.459 21.6579 713.207 21.9629 712.926 22.239C711.8 23.3619 710.276 23.9944 708.686 23.999Z"
                                                    stroke="white" stroke-miterlimit="10" />
                                            </g>
                                        </mask>
                                        <g mask="url(#mask0)">
                                            <path class='pato3'
                                                d="M704.5 -21.5V89C709 95.1667 708.2 107.5 669 107.5C629.8 107.5 233.667 107.5 40.5 107.5C26.5 113.833 2.70001 133.6 19.5 162C36.3 190.4 92.5 180.833 118.5 172.5"
                                                stroke="white" stroke-width="52" />
                                        </g>
                                        <defs>
                                            <clipPath id="clip0">
                                                <rect width="725.686" height="193.359" fill="white" />
                                            </clipPath>
                                        </defs>
                                    </svg>
