<svg width="324" height="128" viewBox="0 0 324 128" fill="none" xmlns="http://www.w3.org/2000/svg">
<g clip-path="url(#clip0)">
<path d="M289.854 127.325V60.746C289.846 53.6551 287.026 46.857 282.012 41.8429C276.998 36.8288 270.2 34.0082 263.109 34H17C12.4913 34 8.16731 32.2089 4.97919 29.0208C1.79107 25.8327 0 21.5087 0 17C0 12.4913 1.79107 8.16731 4.97919 4.97919C8.16731 1.79107 12.4913 0 17 0H263.109C279.214 0.018263 294.654 6.42416 306.042 17.8123C317.43 29.2005 323.836 44.6409 323.854 60.746V127.325H289.854Z" fill="#1AB5D5"/>
<path d="M297.295 44.715C296.619 43.275 296.542 41.6254 297.082 40.1289C297.622 38.6325 298.734 37.4117 300.174 36.735V36.735C301.614 36.0587 303.264 35.9822 304.761 36.5223C306.258 37.0623 307.479 38.1748 308.155 39.615V39.615C308.491 40.328 308.682 41.1001 308.719 41.8872C308.756 42.6743 308.637 43.461 308.37 44.2022C308.102 44.9434 307.691 45.6245 307.16 46.2067C306.629 46.7889 305.989 47.2606 305.275 47.595V47.595C304.478 47.9713 303.607 48.1657 302.725 48.164C301.586 48.1656 300.469 47.8419 299.507 47.2309C298.546 46.6199 297.778 45.7471 297.295 44.715V44.715ZM263.214 22.995C262.427 22.9936 261.647 22.8369 260.921 22.534C260.194 22.2311 259.534 21.7878 258.978 21.2296C258.423 20.6714 257.983 20.0092 257.684 19.2809C257.385 18.5526 257.232 17.7724 257.235 16.985V16.985C257.236 16.1971 257.393 15.4171 257.696 14.6897C257.998 13.9622 258.441 13.3015 258.999 12.7453C259.558 12.1891 260.22 11.7482 260.948 11.4479C261.677 11.1476 262.457 10.9937 263.245 10.995V10.995C264.837 11.0011 266.362 11.6383 267.484 12.7668C268.607 13.8953 269.237 15.423 269.235 17.015V17.015C269.23 18.6029 268.595 20.1238 267.471 21.2447C266.346 22.3656 264.823 22.995 263.235 22.995H263.214ZM207.795 17.005C207.795 16.2157 207.95 15.4342 208.252 14.7049C208.554 13.9757 208.997 13.3131 209.555 12.755C210.113 12.1969 210.776 11.7542 211.505 11.4522C212.234 11.1502 213.016 10.9949 213.805 10.995V10.995C215.398 10.9969 216.924 11.631 218.049 12.7579C219.174 13.8849 219.806 15.4126 219.805 17.005V17.005C219.802 18.5946 219.169 20.1181 218.044 21.2412C216.919 22.3642 215.395 22.995 213.805 22.995V22.995C213.017 22.9963 212.237 22.8424 211.508 22.5421C210.78 22.2418 210.118 21.801 209.559 21.2447C209.001 20.6885 208.558 20.0278 208.256 19.3004C207.953 18.5729 207.796 17.7929 207.795 17.005ZM158.365 17.005C158.364 15.4126 158.996 13.8849 160.121 12.7579C161.246 11.631 162.773 10.9969 164.365 10.995C165.154 10.995 165.935 11.1506 166.663 11.4527C167.392 11.7549 168.054 12.1977 168.611 12.7559C169.168 13.3141 169.61 13.9767 169.911 14.7058C170.212 15.435 170.366 16.2162 170.365 17.005V17.005C170.365 17.7925 170.21 18.5722 169.908 19.2996C169.606 20.027 169.164 20.6878 168.607 21.2441C168.05 21.8005 167.388 22.2415 166.66 22.5419C165.932 22.8424 165.153 22.9963 164.365 22.995V22.995C162.775 22.995 161.251 22.3642 160.126 21.2412C159.001 20.1181 158.368 18.5946 158.365 17.005V17.005ZM108.935 17.005C108.934 15.4126 109.566 13.8849 110.691 12.7579C111.816 11.631 113.343 10.9969 114.935 10.995C115.724 10.995 116.505 11.1506 117.233 11.4527C117.962 11.7549 118.624 12.1977 119.181 12.7559C119.738 13.3141 120.18 13.9767 120.481 14.7058C120.782 15.435 120.936 16.2162 120.935 17.005C120.935 17.7925 120.78 18.5722 120.478 19.2996C120.176 20.027 119.734 20.6878 119.177 21.2441C118.62 21.8005 117.958 22.2415 117.23 22.5419C116.502 22.8424 115.722 22.9963 114.935 22.995V22.995C113.345 22.995 111.821 22.3642 110.696 21.2412C109.571 20.1181 108.938 18.5946 108.935 17.005V17.005ZM59.504 17.005C59.5035 15.4126 60.1351 13.8852 61.2602 12.7582C62.3852 11.6313 63.9116 10.9971 65.504 10.995V10.995C67.0966 10.9966 68.6233 11.6306 69.7485 12.7577C70.8736 13.8847 71.5051 15.4125 71.504 17.005C71.5014 18.5946 70.868 20.1181 69.7431 21.2412C68.6182 22.3642 67.0936 22.995 65.504 22.995C63.9145 22.995 62.3898 22.3642 61.2649 21.2412C60.14 20.1181 59.5067 18.5946 59.504 17.005ZM10.075 17.005C10.0742 15.4126 10.7058 13.8849 11.8309 12.7579C12.956 11.631 14.4826 10.9969 16.075 10.995C17.6674 10.9971 19.1938 11.6313 20.3188 12.7582C21.4439 13.8852 22.0755 15.4126 22.075 17.005V17.005C22.0724 18.5946 21.4391 20.1181 20.3141 21.2412C19.1892 22.3642 17.6646 22.995 16.075 22.995C14.4854 22.995 12.9609 22.3642 11.8359 21.2412C10.711 20.1181 10.0777 18.5946 10.075 17.005V17.005Z" stroke="#E8F6FA" stroke-miterlimit="10"/>
<path d="M306.855 87.035C306.462 87.0354 306.07 86.9949 305.685 86.914C304.913 86.7644 304.179 86.4621 303.525 86.025C303.195 85.8086 302.89 85.5571 302.615 85.275C302.025 84.7258 301.553 84.0634 301.225 83.3275C300.896 82.5915 300.72 81.7971 300.706 80.9914C300.691 80.1858 300.84 79.3855 301.141 78.6384C301.443 77.8913 301.892 77.2126 302.462 76.6427C303.031 76.0729 303.71 75.6237 304.457 75.3218C305.204 75.02 306.004 74.8717 306.81 74.8858C307.616 74.8999 308.41 75.0761 309.146 75.404C309.882 75.7318 310.545 76.2046 311.094 76.794C311.376 77.0693 311.628 77.3744 311.844 77.704C312.277 78.3604 312.58 79.0942 312.735 79.865C312.815 80.2499 312.855 80.6419 312.855 81.035C312.852 82.6254 312.219 84.1499 311.094 85.2745C309.97 86.399 308.445 87.0321 306.855 87.035V87.035Z" stroke="#E8F6FA" stroke-miterlimit="10"/>
<path d="M306.855 124.035C306.462 124.035 306.07 123.995 305.685 123.914C304.913 123.764 304.179 123.462 303.525 123.025C303.195 122.809 302.89 122.557 302.615 122.275C302.025 121.726 301.553 121.063 301.225 120.327C300.896 119.592 300.72 118.797 300.706 117.991C300.691 117.186 300.84 116.386 301.141 115.638C301.443 114.891 301.892 114.213 302.462 113.643C303.031 113.073 303.71 112.624 304.457 112.322C305.204 112.02 306.004 111.872 306.81 111.886C307.616 111.9 308.41 112.076 309.146 112.404C309.882 112.732 310.545 113.205 311.094 113.794C311.376 114.069 311.628 114.374 311.844 114.704C312.277 115.36 312.58 116.094 312.735 116.865C312.815 117.25 312.855 117.642 312.855 118.035C312.852 119.625 312.219 121.15 311.094 122.274C309.97 123.399 308.445 124.032 306.855 124.035V124.035Z" stroke="#E8F6FA" stroke-miterlimit="10"/>
</g>
<defs>
<clipPath id="clip0">
<rect width="323.854" height="127.327" fill="white"/>
</clipPath>
</defs>
</svg>


