<svg xmlns="http://www.w3.org/2000/svg" width="149.727" height="150.856" viewBox="0 0 149.727 150.856">
  <g id="Group_393" data-name="Group 393" transform="translate(-976.576 -295.739)">
    <path id="Path_1105" data-name="Path 1105" d="M1092.3,446.6V356.578a26.869,26.869,0,0,0-26.839-26.839H993.576a17,17,0,0,1,0-34h71.888a60.908,60.908,0,0,1,60.839,60.839V446.6Z" fill="#1ab5d5"/>
    <path id="Path_1106" data-name="Path 1106" d="M993.58,318.74a5.849,5.849,0,0,1-1.181-.12,6.3,6.3,0,0,1-1.119-.34,6.842,6.842,0,0,1-1.04-.55,6.417,6.417,0,0,1-.91-.75,6,6,0,0,1-.74-.91,5.681,5.681,0,0,1-.55-1.04,6.409,6.409,0,0,1-.351-1.12,6.709,6.709,0,0,1-.109-1.17,6.62,6.62,0,0,1,.109-1.17,6.513,6.513,0,0,1,.351-1.13,5.594,5.594,0,0,1,.55-1.03,5.992,5.992,0,0,1,.74-.91,6.417,6.417,0,0,1,.91-.75,6.053,6.053,0,0,1,1.04-.55,5.57,5.57,0,0,1,1.119-.34,5.819,5.819,0,0,1,2.351,0,5.559,5.559,0,0,1,1.12.34,6.127,6.127,0,0,1,1.04.55,5.893,5.893,0,0,1,.909.75,4.957,4.957,0,0,1,.741.91,5.7,5.7,0,0,1,.56,1.03,6.389,6.389,0,0,1,.34,1.13,5.739,5.739,0,0,1,.12,1.17,6.03,6.03,0,0,1-1.761,4.24,5.893,5.893,0,0,1-.909.75,6.938,6.938,0,0,1-1.04.55,6.286,6.286,0,0,1-1.12.34A5.815,5.815,0,0,1,993.58,318.74Z" fill="none" stroke="#fff" stroke-miterlimit="10" stroke-width="1"/>
    <path id="Path_1107" data-name="Path 1107" d="M1103.3,376.109a6.005,6.005,0,0,1,6-6h0a6,6,0,0,1,6,6h0a5.991,5.991,0,0,1-6,6h0A6,6,0,0,1,1103.3,376.109Zm-10.75-45.949a6,6,0,0,1,.1-8.49h0a6.013,6.013,0,0,1,8.491.1h0a6.013,6.013,0,0,1-.11,8.49h0a5.958,5.958,0,0,1-4.19,1.7h0A5.972,5.972,0,0,1,1092.55,330.16Zm-51.54-17.42a6,6,0,0,1,6-6h0a6,6,0,0,1,6,6h0a6,6,0,0,1-6,6h0A6,6,0,0,1,1041.01,312.74Z" fill="none" stroke="#fff" stroke-miterlimit="10" stroke-width="1"/>
    <path id="Path_1108" data-name="Path 1108" d="M1109.3,435.59a6.529,6.529,0,0,1-1.17-.111,6.318,6.318,0,0,1-1.12-.349,6.131,6.131,0,0,1-1.04-.55,6.673,6.673,0,0,1-.91-.74,6.048,6.048,0,0,1-1.76-4.25,5.8,5.8,0,0,1,.12-1.17,6.2,6.2,0,0,1,.34-1.12,6.839,6.839,0,0,1,.55-1.04,6.413,6.413,0,0,1,.75-.91,5.888,5.888,0,0,1,.91-.741,6.435,6.435,0,0,1,2.16-.9,6.187,6.187,0,0,1,2.349,0,5.535,5.535,0,0,1,1.121.35,5.146,5.146,0,0,1,1.03.549,5.973,5.973,0,0,1,.92.741,7.29,7.29,0,0,1,.74.91,6.127,6.127,0,0,1,.55,1.04,6.312,6.312,0,0,1,.349,1.12,6.523,6.523,0,0,1,.111,1.17,6.052,6.052,0,0,1-1.76,4.25,6.121,6.121,0,0,1-.91.74,5.716,5.716,0,0,1-1.03.55,5.68,5.68,0,0,1-2.3.46Z" fill="none" stroke="#fff" stroke-miterlimit="10" stroke-width="1"/>
  </g>
</svg>