<svg width="671" height="128" viewBox="0 0 671 128" fill="none" xmlns="http://www.w3.org/2000/svg">
<g clip-path="url(#clip0)">
<path d="M636.799 127.325V60.746C636.791 53.6551 633.971 46.857 628.957 41.8429C623.943 36.8288 617.145 34.0082 610.054 34H17C12.4913 34 8.1673 32.2089 4.97919 29.0208C1.79107 25.8327 0 21.5087 0 17C0 12.4913 1.79107 8.1673 4.97919 4.97919C8.1673 1.79107 12.4913 0 17 0H610.054C626.159 0.018263 641.599 6.42416 652.987 17.8123C664.375 29.2005 670.781 44.6409 670.799 60.746V127.325H636.799Z" 
fill="#1AB5D5"/>
<path class='path-circles' d="M17 22.995C16.6075 22.9931 16.216 22.9563 15.83 22.885C15.4434 22.8033 15.0651 22.6862 14.7 22.535C14.3388 22.3873 13.9937 22.203 13.67 21.985C13.3409 21.7718 13.0358 21.5237 12.76 21.245C12.4826 20.965 12.2315 20.66 12.01 20.334C11.797 20.0039 11.6129 19.6559 11.46 19.294C11.3074 18.9341 11.1935 18.559 11.12 18.175C10.96 17.3999 10.96 16.6002 11.12 15.825C11.1936 15.4408 11.3076 15.0654 11.46 14.705C11.6113 14.3455 11.7954 14.0007 12.01 13.675C12.4442 13.0141 13.0091 12.4492 13.67 12.015C13.9932 11.7935 14.3383 11.6058 14.7 11.455C15.0654 11.3071 15.4436 11.1932 15.83 11.115C16.9949 10.8806 18.2034 10.9989 19.3007 11.455C20.398 11.911 21.3343 12.684 21.99 13.675C22.2046 14.0007 22.3887 14.3455 22.54 14.705C22.6924 15.0654 22.8064 15.4408 22.88 15.825C23.04 16.6002 23.04 17.3999 22.88 18.175C22.8065 18.559 22.6926 18.9341 22.54 19.294C22.3871 19.6559 22.203 20.0039 21.99 20.334C21.7685 20.66 21.5174 20.965 21.24 21.245C20.9642 21.5237 20.6591 21.7718 20.33 21.985C20.0029 22.2031 19.6544 22.3874 19.29 22.535C18.9283 22.6861 18.5534 22.8033 18.17 22.885C17.784 22.9558 17.3925 22.9926 17 22.995V22.995Z" 
fill="none" stroke="#E8F6FA" stroke-miterlimit="10"/>
<path class='path-circles' d="M67 22.995C66.6075 22.9931 66.216 22.9563 65.83 22.885C65.4434 22.8033 65.0651 22.6862 64.7 22.535C64.3388 22.3873 63.9937 22.203 63.67 21.985C63.3409 21.7718 63.0358 21.5237 62.76 21.245C62.4826 20.965 62.2315 20.66 62.01 20.334C61.797 20.0039 61.6129 19.6559 61.46 19.294C61.3074 18.9341 61.1935 18.559 61.12 18.175C60.96 17.3999 60.96 16.6002 61.12 15.825C61.1936 15.4408 61.3076 15.0654 61.46 14.705C61.6113 14.3455 61.7954 14.0007 62.01 13.675C62.4442 13.0141 63.0091 12.4492 63.67 12.015C63.9932 11.7935 64.3383 11.6058 64.7 11.455C65.0654 11.3071 65.4436 11.1932 65.83 11.115C66.9949 10.8806 68.2034 10.9989 69.3007 11.455C70.398 11.911 71.3343 12.684 71.99 13.675C72.2046 14.0007 72.3887 14.3455 72.54 14.705C72.6924 15.0654 72.8064 15.4408 72.88 15.825C73.04 16.6002 73.04 17.3999 72.88 18.175C72.8065 18.559 72.6926 18.9341 72.54 19.294C72.3871 19.6559 72.203 20.0039 71.99 20.334C71.7685 20.66 71.5174 20.965 71.24 21.245C70.9642 21.5237 70.6591 21.7718 70.33 21.985C70.0029 22.2031 69.6544 22.3874 69.29 22.535C68.9283 22.6861 68.5534 22.8033 68.17 22.885C67.784 22.9558 67.3925 22.9926 67 22.995V22.995Z" 
fill="none" stroke="#E8F6FA" stroke-miterlimit="10"/>
<path class='path-circles' d="M117 22.995C116.608 22.9931 116.216 22.9563 115.83 22.885C115.443 22.8033 115.065 22.6862 114.7 22.535C114.339 22.3873 113.994 22.203 113.67 21.985C113.341 21.7718 113.036 21.5237 112.76 21.245C112.483 20.965 112.232 20.66 112.01 20.334C111.797 20.0039 111.613 19.6559 111.46 19.294C111.307 18.9341 111.193 18.559 111.12 18.175C110.96 17.3999 110.96 16.6002 111.12 15.825C111.194 15.4408 111.308 15.0654 111.46 14.705C111.611 14.3455 111.795 14.0007 112.01 13.675C112.444 13.0141 113.009 12.4492 113.67 12.015C113.993 11.7935 114.338 11.6058 114.7 11.455C115.065 11.3071 115.444 11.1932 115.83 11.115C116.995 10.8806 118.203 10.9989 119.301 11.455C120.398 11.911 121.334 12.684 121.99 13.675C122.205 14.0007 122.389 14.3455 122.54 14.705C122.692 15.0654 122.806 15.4408 122.88 15.825C123.04 16.6002 123.04 17.3999 122.88 18.175C122.807 18.559 122.693 18.9341 122.54 19.294C122.387 19.6559 122.203 20.0039 121.99 20.334C121.768 20.66 121.517 20.965 121.24 21.245C120.964 21.5237 120.659 21.7718 120.33 21.985C120.003 22.2031 119.654 22.3874 119.29 22.535C118.928 22.6861 118.553 22.8033 118.17 22.885C117.784 22.9558 117.392 22.9926 117 22.995V22.995Z" 
fill="none" stroke="#E8F6FA" stroke-miterlimit="10"/>
<path class='path-circles' d="M166 22.995C165.608 22.9931 165.216 22.9563 164.83 22.885C164.443 22.8033 164.065 22.6862 163.7 22.535C163.339 22.3873 162.994 22.203 162.67 21.985C162.341 21.7718 162.036 21.5237 161.76 21.245C161.483 20.965 161.232 20.66 161.01 20.334C160.797 20.0039 160.613 19.6559 160.46 19.294C160.307 18.9341 160.193 18.559 160.12 18.175C159.96 17.3999 159.96 16.6002 160.12 15.825C160.194 15.4408 160.308 15.0654 160.46 14.705C160.611 14.3455 160.795 14.0007 161.01 13.675C161.444 13.0141 162.009 12.4492 162.67 12.015C162.993 11.7935 163.338 11.6058 163.7 11.455C164.065 11.3071 164.444 11.1932 164.83 11.115C165.995 10.8806 167.203 10.9989 168.301 11.455C169.398 11.911 170.334 12.684 170.99 13.675C171.205 14.0007 171.389 14.3455 171.54 14.705C171.692 15.0654 171.806 15.4408 171.88 15.825C172.04 16.6002 172.04 17.3999 171.88 18.175C171.807 18.559 171.693 18.9341 171.54 19.294C171.387 19.6559 171.203 20.0039 170.99 20.334C170.768 20.66 170.517 20.965 170.24 21.245C169.964 21.5237 169.659 21.7718 169.33 21.985C169.003 22.2031 168.654 22.3874 168.29 22.535C167.928 22.6861 167.553 22.8033 167.17 22.885C166.784 22.9558 166.392 22.9926 166 22.995V22.995Z" 
fill="none" stroke="#E8F6FA" stroke-miterlimit="10"/>
<path class='path-circles' d="M215 22.995C214.608 22.9931 214.216 22.9563 213.83 22.885C213.443 22.8033 213.065 22.6862 212.7 22.535C212.339 22.3873 211.994 22.203 211.67 21.985C211.341 21.7718 211.036 21.5237 210.76 21.245C210.483 20.965 210.232 20.66 210.01 20.334C209.797 20.0039 209.613 19.6559 209.46 19.294C209.307 18.9341 209.193 18.559 209.12 18.175C208.96 17.3999 208.96 16.6002 209.12 15.825C209.194 15.4408 209.308 15.0654 209.46 14.705C209.611 14.3455 209.795 14.0007 210.01 13.675C210.444 13.0141 211.009 12.4492 211.67 12.015C211.993 11.7935 212.338 11.6058 212.7 11.455C213.065 11.3071 213.444 11.1932 213.83 11.115C214.995 10.8806 216.203 10.9989 217.301 11.455C218.398 11.911 219.334 12.684 219.99 13.675C220.205 14.0007 220.389 14.3455 220.54 14.705C220.692 15.0654 220.806 15.4408 220.88 15.825C221.04 16.6002 221.04 17.3999 220.88 18.175C220.807 18.559 220.693 18.9341 220.54 19.294C220.387 19.6559 220.203 20.0039 219.99 20.334C219.768 20.66 219.517 20.965 219.24 21.245C218.964 21.5237 218.659 21.7718 218.33 21.985C218.003 22.2031 217.654 22.3874 217.29 22.535C216.928 22.6861 216.553 22.8033 216.17 22.885C215.784 22.9558 215.392 22.9926 215 22.995V22.995Z" 
fill="none" stroke="#E8F6FA" stroke-miterlimit="10"/>
<path class='path-circles' d="M265 22.995C264.608 22.9931 264.216 22.9563 263.83 22.885C263.443 22.8033 263.065 22.6862 262.7 22.535C262.339 22.3873 261.994 22.203 261.67 21.985C261.341 21.7718 261.036 21.5237 260.76 21.245C260.483 20.965 260.232 20.66 260.01 20.334C259.797 20.0039 259.613 19.6559 259.46 19.294C259.307 18.9341 259.193 18.559 259.12 18.175C258.96 17.3999 258.96 16.6002 259.12 15.825C259.194 15.4408 259.308 15.0654 259.46 14.705C259.611 14.3455 259.795 14.0007 260.01 13.675C260.444 13.0141 261.009 12.4492 261.67 12.015C261.993 11.7935 262.338 11.6058 262.7 11.455C263.065 11.3071 263.444 11.1932 263.83 11.115C264.995 10.8806 266.203 10.9989 267.301 11.455C268.398 11.911 269.334 12.684 269.99 13.675C270.205 14.0007 270.389 14.3455 270.54 14.705C270.692 15.0654 270.806 15.4408 270.88 15.825C271.04 16.6002 271.04 17.3999 270.88 18.175C270.807 18.559 270.693 18.9341 270.54 19.294C270.387 19.6559 270.203 20.0039 269.99 20.334C269.768 20.66 269.517 20.965 269.24 21.245C268.964 21.5237 268.659 21.7718 268.33 21.985C268.003 22.2031 267.654 22.3874 267.29 22.535C266.928 22.6861 266.553 22.8033 266.17 22.885C265.784 22.9558 265.392 22.9926 265 22.995V22.995Z" 
fill="none" stroke="#E8F6FA" stroke-miterlimit="10"/>
<path class='path-circles' d="M313 22.995C312.608 22.9931 312.216 22.9563 311.83 22.885C311.443 22.8033 311.065 22.6862 310.7 22.535C310.339 22.3873 309.994 22.203 309.67 21.985C309.341 21.7718 309.036 21.5237 308.76 21.245C308.483 20.965 308.232 20.66 308.01 20.334C307.797 20.0039 307.613 19.6559 307.46 19.294C307.307 18.9341 307.193 18.559 307.12 18.175C306.96 17.3999 306.96 16.6002 307.12 15.825C307.194 15.4408 307.308 15.0654 307.46 14.705C307.611 14.3455 307.795 14.0007 308.01 13.675C308.444 13.0141 309.009 12.4492 309.67 12.015C309.993 11.7935 310.338 11.6058 310.7 11.455C311.065 11.3071 311.444 11.1932 311.83 11.115C312.995 10.8806 314.203 10.9989 315.301 11.455C316.398 11.911 317.334 12.684 317.99 13.675C318.205 14.0007 318.389 14.3455 318.54 14.705C318.692 15.0654 318.806 15.4408 318.88 15.825C319.04 16.6002 319.04 17.3999 318.88 18.175C318.807 18.559 318.693 18.9341 318.54 19.294C318.387 19.6559 318.203 20.0039 317.99 20.334C317.768 20.66 317.517 20.965 317.24 21.245C316.964 21.5237 316.659 21.7718 316.33 21.985C316.003 22.2031 315.654 22.3874 315.29 22.535C314.928 22.6861 314.553 22.8033 314.17 22.885C313.784 22.9558 313.392 22.9926 313 22.995V22.995Z" 
fill="none" stroke="#E8F6FA" stroke-miterlimit="10"/>
<path class='path-circles' d="M364 22.995C363.608 22.9931 363.216 22.9563 362.83 22.885C362.443 22.8033 362.065 22.6862 361.7 22.535C361.339 22.3873 360.994 22.203 360.67 21.985C360.341 21.7718 360.036 21.5237 359.76 21.245C359.483 20.965 359.232 20.66 359.01 20.334C358.797 20.0039 358.613 19.6559 358.46 19.294C358.307 18.9341 358.193 18.559 358.12 18.175C357.96 17.3999 357.96 16.6002 358.12 15.825C358.194 15.4408 358.308 15.0654 358.46 14.705C358.611 14.3455 358.795 14.0007 359.01 13.675C359.444 13.0141 360.009 12.4492 360.67 12.015C360.993 11.7935 361.338 11.6058 361.7 11.455C362.065 11.3071 362.444 11.1932 362.83 11.115C363.995 10.8806 365.203 10.9989 366.301 11.455C367.398 11.911 368.334 12.684 368.99 13.675C369.205 14.0007 369.389 14.3455 369.54 14.705C369.692 15.0654 369.806 15.4408 369.88 15.825C370.04 16.6002 370.04 17.3999 369.88 18.175C369.807 18.559 369.693 18.9341 369.54 19.294C369.387 19.6559 369.203 20.0039 368.99 20.334C368.768 20.66 368.517 20.965 368.24 21.245C367.964 21.5237 367.659 21.7718 367.33 21.985C367.003 22.2031 366.654 22.3874 366.29 22.535C365.928 22.6861 365.553 22.8033 365.17 22.885C364.784 22.9558 364.392 22.9926 364 22.995V22.995Z" 
fill="none" stroke="#E8F6FA" stroke-miterlimit="10"/>
<path class='path-circles' d="M413 22.995C412.608 22.9931 412.216 22.9563 411.83 22.885C411.443 22.8033 411.065 22.6862 410.7 22.535C410.339 22.3873 409.994 22.203 409.67 21.985C409.341 21.7718 409.036 21.5237 408.76 21.245C408.483 20.965 408.232 20.66 408.01 20.334C407.797 20.0039 407.613 19.6559 407.46 19.294C407.307 18.9341 407.193 18.559 407.12 18.175C406.96 17.3999 406.96 16.6002 407.12 15.825C407.194 15.4408 407.308 15.0654 407.46 14.705C407.611 14.3455 407.795 14.0007 408.01 13.675C408.444 13.0141 409.009 12.4492 409.67 12.015C409.993 11.7935 410.338 11.6058 410.7 11.455C411.065 11.3071 411.444 11.1932 411.83 11.115C412.995 10.8806 414.203 10.9989 415.301 11.455C416.398 11.911 417.334 12.684 417.99 13.675C418.205 14.0007 418.389 14.3455 418.54 14.705C418.692 15.0654 418.806 15.4408 418.88 15.825C419.04 16.6002 419.04 17.3999 418.88 18.175C418.807 18.559 418.693 18.9341 418.54 19.294C418.387 19.6559 418.203 20.0039 417.99 20.334C417.768 20.66 417.517 20.965 417.24 21.245C416.964 21.5237 416.659 21.7718 416.33 21.985C416.003 22.2031 415.654 22.3874 415.29 22.535C414.928 22.6861 414.553 22.8033 414.17 22.885C413.784 22.9558 413.392 22.9926 413 22.995V22.995Z" 
fill="none" stroke="#E8F6FA" stroke-miterlimit="10"/>
<path class='path-circles' d="M462 22.995C461.608 22.9931 461.216 22.9563 460.83 22.885C460.443 22.8033 460.065 22.6862 459.7 22.535C459.339 22.3873 458.994 22.203 458.67 21.985C458.341 21.7718 458.036 21.5237 457.76 21.245C457.483 20.965 457.232 20.66 457.01 20.334C456.797 20.0039 456.613 19.6559 456.46 19.294C456.307 18.9341 456.193 18.559 456.12 18.175C455.96 17.3999 455.96 16.6002 456.12 15.825C456.194 15.4408 456.308 15.0654 456.46 14.705C456.611 14.3455 456.795 14.0007 457.01 13.675C457.444 13.0141 458.009 12.4492 458.67 12.015C458.993 11.7935 459.338 11.6058 459.7 11.455C460.065 11.3071 460.444 11.1932 460.83 11.115C461.995 10.8806 463.203 10.9989 464.301 11.455C465.398 11.911 466.334 12.684 466.99 13.675C467.205 14.0007 467.389 14.3455 467.54 14.705C467.692 15.0654 467.806 15.4408 467.88 15.825C468.04 16.6002 468.04 17.3999 467.88 18.175C467.807 18.559 467.693 18.9341 467.54 19.294C467.387 19.6559 467.203 20.0039 466.99 20.334C466.768 20.66 466.517 20.965 466.24 21.245C465.964 21.5237 465.659 21.7718 465.33 21.985C465.003 22.2031 464.654 22.3874 464.29 22.535C463.928 22.6861 463.553 22.8033 463.17 22.885C462.784 22.9558 462.392 22.9926 462 22.995V22.995Z" 
fill="none" stroke="#E8F6FA" stroke-miterlimit="10"/>
<path class='path-circles' d="M512 22.995C511.608 22.9931 511.216 22.9563 510.83 22.885C510.443 22.8033 510.065 22.6862 509.7 22.535C509.339 22.3873 508.994 22.203 508.67 21.985C508.341 21.7718 508.036 21.5237 507.76 21.245C507.483 20.965 507.232 20.66 507.01 20.334C506.797 20.0039 506.613 19.6559 506.46 19.294C506.307 18.9341 506.193 18.559 506.12 18.175C505.96 17.3999 505.96 16.6002 506.12 15.825C506.194 15.4408 506.308 15.0654 506.46 14.705C506.611 14.3455 506.795 14.0007 507.01 13.675C507.444 13.0141 508.009 12.4492 508.67 12.015C508.993 11.7935 509.338 11.6058 509.7 11.455C510.065 11.3071 510.444 11.1932 510.83 11.115C511.995 10.8806 513.203 10.9989 514.301 11.455C515.398 11.911 516.334 12.684 516.99 13.675C517.205 14.0007 517.389 14.3455 517.54 14.705C517.692 15.0654 517.806 15.4408 517.88 15.825C518.04 16.6002 518.04 17.3999 517.88 18.175C517.807 18.559 517.693 18.9341 517.54 19.294C517.387 19.6559 517.203 20.0039 516.99 20.334C516.768 20.66 516.517 20.965 516.24 21.245C515.964 21.5237 515.659 21.7718 515.33 21.985C515.003 22.2031 514.654 22.3874 514.29 22.535C513.928 22.6861 513.553 22.8033 513.17 22.885C512.784 22.9558 512.392 22.9926 512 22.995V22.995Z" 
fill="none" stroke="#E8F6FA" stroke-miterlimit="10"/>
<path class='path-circles' d="M561 22.995C560.608 22.9931 560.216 22.9563 559.83 22.885C559.443 22.8033 559.065 22.6862 558.7 22.535C558.339 22.3873 557.994 22.203 557.67 21.985C557.341 21.7718 557.036 21.5237 556.76 21.245C556.483 20.965 556.232 20.66 556.01 20.334C555.797 20.0039 555.613 19.6559 555.46 19.294C555.307 18.9341 555.193 18.559 555.12 18.175C554.96 17.3999 554.96 16.6002 555.12 15.825C555.194 15.4408 555.308 15.0654 555.46 14.705C555.611 14.3455 555.795 14.0007 556.01 13.675C556.444 13.0141 557.009 12.4492 557.67 12.015C557.993 11.7935 558.338 11.6058 558.7 11.455C559.065 11.3071 559.444 11.1932 559.83 11.115C560.995 10.8806 562.203 10.9989 563.301 11.455C564.398 11.911 565.334 12.684 565.99 13.675C566.205 14.0007 566.389 14.3455 566.54 14.705C566.692 15.0654 566.806 15.4408 566.88 15.825C567.04 16.6002 567.04 17.3999 566.88 18.175C566.807 18.559 566.693 18.9341 566.54 19.294C566.387 19.6559 566.203 20.0039 565.99 20.334C565.768 20.66 565.517 20.965 565.24 21.245C564.964 21.5237 564.659 21.7718 564.33 21.985C564.003 22.2031 563.654 22.3874 563.29 22.535C562.928 22.6861 562.553 22.8033 562.17 22.885C561.784 22.9558 561.392 22.9926 561 22.995V22.995Z" 
fill="none" stroke="#E8F6FA" stroke-miterlimit="10"/>
<path class='path-circles' d="M610 22.995C609.608 22.9931 609.216 22.9563 608.83 22.885C608.443 22.8033 608.065 22.6862 607.7 22.535C607.339 22.3873 606.994 22.203 606.67 21.985C606.341 21.7718 606.036 21.5237 605.76 21.245C605.483 20.965 605.232 20.66 605.01 20.334C604.797 20.0039 604.613 19.6559 604.46 19.294C604.307 18.9341 604.193 18.559 604.12 18.175C603.96 17.3999 603.96 16.6002 604.12 15.825C604.194 15.4408 604.308 15.0654 604.46 14.705C604.611 14.3455 604.795 14.0007 605.01 13.675C605.444 13.0141 606.009 12.4492 606.67 12.015C606.993 11.7935 607.338 11.6058 607.7 11.455C608.065 11.3071 608.444 11.1932 608.83 11.115C609.995 10.8806 611.203 10.9989 612.301 11.455C613.398 11.911 614.334 12.684 614.99 13.675C615.205 14.0007 615.389 14.3455 615.54 14.705C615.692 15.0654 615.806 15.4408 615.88 15.825C616.04 16.6002 616.04 17.3999 615.88 18.175C615.807 18.559 615.693 18.9341 615.54 19.294C615.387 19.6559 615.203 20.0039 614.99 20.334C614.768 20.66 614.517 20.965 614.24 21.245C613.964 21.5237 613.659 21.7718 613.33 21.985C613.003 22.2031 612.654 22.3874 612.29 22.535C611.928 22.6861 611.553 22.8033 611.17 22.885C610.784 22.9558 610.392 22.9926 610 22.995V22.995Z" 
fill="none" stroke="#E8F6FA" stroke-miterlimit="10"/>
<path class='path-circles' d="M650 47.995C649.608 47.9931 649.216 47.9563 648.83 47.885C648.443 47.8033 648.065 47.6862 647.7 47.535C647.339 47.3873 646.994 47.203 646.67 46.985C646.341 46.7718 646.036 46.5237 645.76 46.245C645.483 45.965 645.232 45.66 645.01 45.334C644.797 45.0039 644.613 44.6559 644.46 44.294C644.307 43.9341 644.193 43.559 644.12 43.175C643.96 42.3999 643.96 41.6002 644.12 40.825C644.194 40.4408 644.308 40.0654 644.46 39.705C644.611 39.3455 644.795 39.0007 645.01 38.675C645.444 38.0141 646.009 37.4492 646.67 37.015C646.993 36.7935 647.338 36.6058 647.7 36.455C648.065 36.3071 648.444 36.1932 648.83 36.115C649.995 35.8806 651.203 35.9989 652.301 36.455C653.398 36.911 654.334 37.684 654.99 38.675C655.205 39.0007 655.389 39.3455 655.54 39.705C655.692 40.0654 655.806 40.4408 655.88 40.825C656.04 41.6002 656.04 42.3999 655.88 43.175C655.807 43.559 655.693 43.9341 655.54 44.294C655.387 44.6559 655.203 45.0039 654.99 45.334C654.768 45.66 654.517 45.965 654.24 46.245C653.964 46.5237 653.659 46.7718 653.33 46.985C653.003 47.2031 652.654 47.3874 652.29 47.535C651.928 47.6861 651.553 47.8033 651.17 47.885C650.784 47.9558 650.392 47.9926 650 47.995V47.995Z" 
fill="none" stroke="#E8F6FA" stroke-miterlimit="10"/>
<path class='path-circles' d="M654 86.995C653.608 86.9931 653.216 86.9563 652.83 86.885C652.443 86.8033 652.065 86.6862 651.7 86.535C651.339 86.3873 650.994 86.203 650.67 85.985C650.341 85.7718 650.036 85.5237 649.76 85.245C649.483 84.965 649.232 84.66 649.01 84.334C648.797 84.0039 648.613 83.6559 648.46 83.294C648.307 82.9341 648.193 82.559 648.12 82.175C647.96 81.3999 647.96 80.6002 648.12 79.825C648.194 79.4408 648.308 79.0654 648.46 78.705C648.611 78.3455 648.795 78.0007 649.01 77.675C649.444 77.0141 650.009 76.4492 650.67 76.015C650.993 75.7935 651.338 75.6058 651.7 75.455C652.065 75.3071 652.444 75.1932 652.83 75.115C653.995 74.8806 655.203 74.9989 656.301 75.455C657.398 75.911 658.334 76.684 658.99 77.675C659.205 78.0007 659.389 78.3455 659.54 78.705C659.692 79.0654 659.806 79.4408 659.88 79.825C660.04 80.6002 660.04 81.3999 659.88 82.175C659.807 82.559 659.693 82.9341 659.54 83.294C659.387 83.6559 659.203 84.0039 658.99 84.334C658.768 84.66 658.517 84.965 658.24 85.245C657.964 85.5237 657.659 85.7718 657.33 85.985C657.003 86.2031 656.654 86.3874 656.29 86.535C655.928 86.6861 655.553 86.8033 655.17 86.885C654.784 86.9558 654.392 86.9926 654 86.995V86.995Z" 
fill="none" stroke="#E8F6FA" stroke-miterlimit="10"/>
<path class='path-circles' d="M654 123.995C653.608 123.993 653.216 123.956 652.83 123.885C652.443 123.803 652.065 123.686 651.7 123.535C651.339 123.387 650.994 123.203 650.67 122.985C650.341 122.772 650.036 122.524 649.76 122.245C649.483 121.965 649.232 121.66 649.01 121.334C648.797 121.004 648.613 120.656 648.46 120.294C648.307 119.934 648.193 119.559 648.12 119.175C647.96 118.4 647.96 117.6 648.12 116.825C648.194 116.441 648.308 116.065 648.46 115.705C648.611 115.346 648.795 115.001 649.01 114.675C649.444 114.014 650.009 113.449 650.67 113.015C650.993 112.793 651.338 112.606 651.7 112.455C652.065 112.307 652.444 112.193 652.83 112.115C653.995 111.881 655.203 111.999 656.301 112.455C657.398 112.911 658.334 113.684 658.99 114.675C659.205 115.001 659.389 115.346 659.54 115.705C659.692 116.065 659.806 116.441 659.88 116.825C660.04 117.6 660.04 118.4 659.88 119.175C659.807 119.559 659.693 119.934 659.54 120.294C659.387 120.656 659.203 121.004 658.99 121.334C658.768 121.66 658.517 121.965 658.24 122.245C657.964 122.524 657.659 122.772 657.33 122.985C657.003 123.203 656.654 123.387 656.29 123.535C655.928 123.686 655.553 123.803 655.17 123.885C654.784 123.956 654.392 123.993 654 123.995V123.995Z" 
fill="none" stroke="#E8F6FA" stroke-miterlimit="10"/>
<path d="M653.8 124.035C653.407 124.035 653.015 123.995 652.63 123.914C651.858 123.764 651.124 123.462 650.47 123.025C650.14 122.809 649.835 122.557 649.56 122.275C648.97 121.726 648.497 121.063 648.169 120.327C647.841 119.592 647.665 118.797 647.651 117.991C647.636 117.186 647.784 116.386 648.086 115.638C648.388 114.891 648.837 114.213 649.407 113.643C649.976 113.073 650.655 112.624 651.402 112.322C652.149 112.02 652.949 111.872 653.755 111.886C654.561 111.9 655.355 112.076 656.091 112.404C656.827 112.732 657.49 113.205 658.039 113.794C658.321 114.069 658.573 114.374 658.789 114.704C659.222 115.36 659.525 116.094 659.68 116.865C659.76 117.25 659.8 117.642 659.8 118.035C659.797 119.625 659.164 121.15 658.039 122.274C656.915 123.399 655.39 124.032 653.8 124.035V124.035Z" stroke="#E8F6FA" stroke-miterlimit="10"/>
<path d="M644.24 44.715C643.564 43.275 643.487 41.6254 644.027 40.1289C644.567 38.6325 645.679 37.4117 647.119 36.735V36.735C648.559 36.0587 650.209 35.9822 651.706 36.5223C653.203 37.0623 654.424 38.1748 655.1 39.615V39.615C655.436 40.328 655.627 41.1001 655.664 41.8872C655.701 42.6743 655.582 43.461 655.315 44.2022C655.047 44.9434 654.636 45.6245 654.105 46.2067C653.574 46.7889 652.934 47.2606 652.22 47.595V47.595C651.423 47.9713 650.552 48.1657 649.67 48.164C648.531 48.1656 647.414 47.8419 646.452 47.2309C645.491 46.6199 644.723 45.7471 644.24 44.715V44.715ZM610.159 22.995C609.372 22.9936 608.592 22.8369 607.866 22.534C607.139 22.2311 606.479 21.7878 605.923 21.2296C605.368 20.6714 604.928 20.0092 604.629 19.2809C604.33 18.5526 604.177 17.7724 604.18 16.985V16.985C604.181 16.1971 604.338 15.4171 604.641 14.6897C604.943 13.9622 605.386 13.3015 605.944 12.7453C606.503 12.1891 607.165 11.7482 607.893 11.4479C608.622 11.1476 609.402 10.9937 610.19 10.995V10.995C611.782 11.0011 613.307 11.6383 614.43 12.7668C615.552 13.8953 616.182 15.423 616.18 17.015V17.015C616.175 18.6029 615.54 20.1238 614.416 21.2447C613.291 22.3656 611.768 22.995 610.18 22.995H610.159ZM554.74 17.005C554.74 16.2157 554.895 15.4342 555.197 14.7049C555.499 13.9757 555.942 13.3131 556.5 12.755C557.058 12.1969 557.721 11.7542 558.45 11.4522C559.179 11.1502 559.961 10.9949 560.75 10.995V10.995C562.342 10.9969 563.869 11.631 564.994 12.7579C566.119 13.8849 566.751 15.4126 566.75 17.005V17.005C566.747 18.5946 566.114 20.1181 564.989 21.2412C563.864 22.3642 562.34 22.995 560.75 22.995V22.995C559.962 22.9963 559.182 22.8424 558.453 22.5421C557.725 22.2418 557.063 21.801 556.504 21.2447C555.946 20.6885 555.503 20.0278 555.201 19.3004C554.898 18.5729 554.741 17.7929 554.74 17.005ZM505.31 17.005C505.309 15.4126 505.941 13.8849 507.066 12.7579C508.191 11.631 509.718 10.9969 511.31 10.995C512.099 10.995 512.88 11.1506 513.608 11.4527C514.337 11.7549 514.999 12.1977 515.556 12.7559C516.113 13.3141 516.555 13.9767 516.856 14.7058C517.157 15.435 517.311 16.2162 517.31 17.005V17.005C517.31 17.7925 517.155 18.5722 516.853 19.2996C516.551 20.027 516.109 20.6878 515.552 21.2441C514.995 21.8005 514.333 22.2415 513.605 22.5419C512.877 22.8424 512.097 22.9963 511.31 22.995V22.995C509.72 22.995 508.196 22.3642 507.071 21.2412C505.946 20.1181 505.313 18.5946 505.31 17.005V17.005ZM455.88 17.005C455.879 15.4126 456.511 13.8849 457.636 12.7579C458.761 11.631 460.288 10.9969 461.88 10.995C462.669 10.995 463.45 11.1506 464.178 11.4527C464.907 11.7549 465.569 12.1977 466.126 12.7559C466.683 13.3141 467.125 13.9767 467.426 14.7058C467.727 15.435 467.881 16.2162 467.88 17.005C467.88 17.7925 467.725 18.5722 467.423 19.2996C467.121 20.027 466.679 20.6878 466.122 21.2441C465.565 21.8005 464.903 22.2415 464.175 22.5419C463.447 22.8424 462.667 22.9963 461.88 22.995V22.995C460.29 22.995 458.766 22.3642 457.641 21.2412C456.516 20.1181 455.883 18.5946 455.88 17.005V17.005ZM406.449 17.005C406.448 15.4126 407.08 13.8852 408.205 12.7582C409.33 11.6313 410.857 10.9971 412.449 10.995V10.995C414.042 10.9966 415.568 11.6306 416.693 12.7577C417.819 13.8847 418.45 15.4125 418.449 17.005C418.446 18.5946 417.813 20.1181 416.688 21.2412C415.563 22.3642 414.039 22.995 412.449 22.995C410.859 22.995 409.335 22.3642 408.21 21.2412C407.085 20.1181 406.452 18.5946 406.449 17.005ZM357.02 17.005C357.019 15.4126 357.651 13.8849 358.776 12.7579C359.901 11.631 361.428 10.9969 363.02 10.995C364.612 10.9971 366.139 11.6313 367.264 12.7582C368.389 13.8852 369.021 15.4126 369.02 17.005V17.005C369.017 18.5946 368.384 20.1181 367.259 21.2412C366.134 22.3642 364.61 22.995 363.02 22.995C361.43 22.995 359.906 22.3642 358.781 21.2412C357.656 20.1181 357.023 18.5946 357.02 17.005V17.005ZM307.59 17.005C307.589 16.2162 307.743 15.435 308.044 14.7058C308.345 13.9767 308.787 13.3141 309.344 12.7559C309.901 12.1977 310.563 11.7549 311.292 11.4527C312.02 11.1506 312.801 10.995 313.59 10.995V10.995C315.182 10.9969 316.709 11.631 317.834 12.7579C318.959 13.8849 319.591 15.4126 319.59 17.005V17.005C319.587 18.5946 318.954 20.1181 317.829 21.2412C316.704 22.3642 315.18 22.995 313.59 22.995C312.803 22.9963 312.023 22.8424 311.295 22.5419C310.567 22.2415 309.905 21.8005 309.348 21.2441C308.791 20.6878 308.349 20.027 308.047 19.2996C307.745 18.5722 307.59 17.7925 307.59 17.005V17.005ZM258.159 17.005C258.158 16.2162 258.312 15.435 258.613 14.7058C258.914 13.9767 259.356 13.3141 259.913 12.7559C260.47 12.1977 261.132 11.7549 261.861 11.4527C262.589 11.1506 263.37 10.995 264.159 10.995C265.752 10.9966 267.278 11.6306 268.403 12.7577C269.529 13.8847 270.16 15.4125 270.159 17.005C270.156 18.5946 269.523 20.1181 268.398 21.2412C267.273 22.3642 265.749 22.995 264.159 22.995C263.372 22.9963 262.592 22.8424 261.864 22.5419C261.136 22.2415 260.474 21.8005 259.917 21.2441C259.36 20.6878 258.918 20.027 258.616 19.2996C258.314 18.5722 258.159 17.7925 258.159 17.005V17.005ZM208.73 17.005C208.729 16.2171 208.883 15.4366 209.183 14.7081C209.483 13.9797 209.924 13.3175 210.48 12.7594C211.037 12.2014 211.697 11.7583 212.425 11.4556C213.152 11.1528 213.932 10.9963 214.72 10.995V10.995C215.509 10.995 216.29 11.1506 217.018 11.4527C217.747 11.7549 218.409 12.1977 218.966 12.7559C219.523 13.3141 219.965 13.9767 220.266 14.7058C220.567 15.435 220.721 16.2162 220.72 17.005C220.72 17.7925 220.565 18.5722 220.263 19.2996C219.961 20.027 219.519 20.6878 218.962 21.2441C218.405 21.8005 217.743 22.2415 217.015 22.5419C216.287 22.8424 215.507 22.9963 214.72 22.995V22.995C213.933 22.9954 213.154 22.8408 212.427 22.5399C211.7 22.239 211.04 21.7978 210.484 21.2415C209.927 20.6852 209.486 20.0247 209.185 19.2978C208.884 18.5709 208.73 17.7917 208.73 17.005V17.005ZM159.3 17.005C159.299 16.2171 159.453 15.4366 159.753 14.7081C160.053 13.9797 160.494 13.3175 161.05 12.7594C161.607 12.2014 162.267 11.7583 162.995 11.4556C163.722 11.1528 164.502 10.9963 165.29 10.995V10.995C166.079 10.995 166.86 11.1506 167.588 11.4527C168.317 11.7549 168.979 12.1977 169.536 12.7559C170.093 13.3141 170.535 13.9767 170.836 14.7058C171.137 15.435 171.291 16.2162 171.29 17.005V17.005C171.29 17.7925 171.135 18.5722 170.833 19.2996C170.531 20.027 170.089 20.6878 169.532 21.2441C168.975 21.8005 168.313 22.2415 167.585 22.5419C166.857 22.8424 166.077 22.9963 165.29 22.995V22.995C164.503 22.9953 163.724 22.8405 162.997 22.5396C162.271 22.2387 161.61 21.7974 161.054 21.2412C160.498 20.6849 160.056 20.0244 159.755 19.2976C159.454 18.5707 159.3 17.7917 159.3 17.005V17.005ZM109.86 17.005C109.859 15.4126 110.491 13.8849 111.616 12.7579C112.741 11.631 114.268 10.9969 115.86 10.995V10.995C116.649 10.995 117.43 11.1506 118.158 11.4527C118.887 11.7549 119.549 12.1977 120.106 12.7559C120.663 13.3141 121.105 13.9767 121.406 14.7058C121.707 15.435 121.861 16.2162 121.86 17.005C121.86 17.7925 121.705 18.5722 121.403 19.2996C121.101 20.027 120.659 20.6878 120.102 21.2441C119.545 21.8005 118.883 22.2415 118.155 22.5419C117.427 22.8424 116.647 22.9963 115.86 22.995V22.995C114.27 22.995 112.746 22.3642 111.621 21.2412C110.496 20.1181 109.863 18.5946 109.86 17.005V17.005ZM60.43 17.005C60.4292 15.4126 61.0608 13.8849 62.1859 12.7579C63.311 11.631 64.8375 10.9969 66.43 10.995C67.2188 10.995 67.9998 11.1506 68.7284 11.4527C69.457 11.7549 70.1189 12.1977 70.6762 12.7559C71.2335 13.3141 71.6752 13.9767 71.9762 14.7058C72.2771 15.435 72.4313 16.2162 72.43 17.005C72.43 17.7925 72.2747 18.5722 71.9731 19.2996C71.6714 20.027 71.2293 20.6878 70.672 21.2441C70.1147 21.8005 69.4532 22.2415 68.7253 22.5419C67.9974 22.8424 67.2175 22.9963 66.43 22.995V22.995C64.8404 22.995 63.3158 22.3642 62.1909 21.2412C61.066 20.1181 60.4326 18.5946 60.43 17.005V17.005Z" stroke="#E8F6FA" stroke-miterlimit="10"/>
</g>
<mask id="mask0" mask-type="alpha" maskUnits="userSpaceOnUse" x="0" y="0" width="671" height="128">
<g clip-path="url(#clip1)">
<path d="M636.799 127.325V60.746C636.791 53.6551 633.971 46.857 628.957 41.8429C623.943 36.8288 617.145 34.0082 610.054 34H17C12.4913 34 8.1673 32.2089 4.97919 29.0208C1.79107 25.8327 0 21.5087 0 17C0 12.4913 1.79107 8.1673 4.97919 4.97919C8.1673 1.79107 12.4913 0 17 0H610.054C626.159 0.018263 641.599 6.42416 652.987 17.8123C664.375 29.2005 670.781 44.6409 670.799 60.746V127.325H636.799Z" fill="#1AB5D5"/>
<path d="M17 22.995C16.6075 22.9931 16.216 22.9563 15.83 22.885C15.4434 22.8033 15.0651 22.6862 14.7 22.535C14.3388 22.3873 13.9937 22.203 13.67 21.985C13.3409 21.7718 13.0358 21.5237 12.76 21.245C12.4826 20.965 12.2315 20.66 12.01 20.334C11.797 20.0039 11.6129 19.6559 11.46 19.294C11.3074 18.9341 11.1935 18.559 11.12 18.175C10.96 17.3999 10.96 16.6002 11.12 15.825C11.1936 15.4408 11.3076 15.0654 11.46 14.705C11.6113 14.3455 11.7954 14.0007 12.01 13.675C12.4442 13.0141 13.0091 12.4492 13.67 12.015C13.9932 11.7935 14.3383 11.6058 14.7 11.455C15.0654 11.3071 15.4436 11.1932 15.83 11.115C16.9949 10.8806 18.2034 10.9989 19.3007 11.455C20.398 11.911 21.3343 12.684 21.99 13.675C22.2046 14.0007 22.3887 14.3455 22.54 14.705C22.6924 15.0654 22.8064 15.4408 22.88 15.825C23.04 16.6002 23.04 17.3999 22.88 18.175C22.8065 18.559 22.6926 18.9341 22.54 19.294C22.3871 19.6559 22.203 20.0039 21.99 20.334C21.7685 20.66 21.5174 20.965 21.24 21.245C20.9642 21.5237 20.6591 21.7718 20.33 21.985C20.0029 22.2031 19.6544 22.3874 19.29 22.535C18.9283 22.6861 18.5534 22.8033 18.17 22.885C17.784 22.9558 17.3925 22.9926 17 22.995V22.995Z" stroke="#E8F6FA" stroke-miterlimit="10"/>
<path d="M644.24 44.715C643.564 43.275 643.487 41.6254 644.027 40.1289C644.567 38.6325 645.679 37.4117 647.119 36.735V36.735C648.559 36.0587 650.209 35.9822 651.706 36.5223C653.203 37.0623 654.424 38.1748 655.1 39.615V39.615C655.436 40.328 655.627 41.1001 655.664 41.8872C655.701 42.6743 655.582 43.461 655.315 44.2022C655.047 44.9434 654.636 45.6245 654.105 46.2067C653.574 46.7889 652.934 47.2606 652.22 47.595V47.595C651.423 47.9713 650.552 48.1657 649.67 48.164C648.531 48.1656 647.414 47.8419 646.452 47.2309C645.491 46.6199 644.723 45.7471 644.24 44.715V44.715ZM610.159 22.995C609.372 22.9936 608.592 22.8369 607.866 22.534C607.139 22.2311 606.479 21.7878 605.923 21.2296C605.368 20.6714 604.928 20.0092 604.629 19.2809C604.33 18.5526 604.177 17.7724 604.18 16.985V16.985C604.181 16.1971 604.338 15.4171 604.641 14.6897C604.943 13.9622 605.386 13.3015 605.944 12.7453C606.503 12.1891 607.165 11.7482 607.893 11.4479C608.622 11.1476 609.402 10.9937 610.19 10.995V10.995C611.782 11.0011 613.307 11.6383 614.43 12.7668C615.552 13.8953 616.182 15.423 616.18 17.015V17.015C616.175 18.6029 615.54 20.1238 614.416 21.2447C613.291 22.3656 611.768 22.995 610.18 22.995H610.159ZM554.74 17.005C554.74 16.2157 554.895 15.4342 555.197 14.7049C555.499 13.9757 555.942 13.3131 556.5 12.755C557.058 12.1969 557.721 11.7542 558.45 11.4522C559.179 11.1502 559.961 10.9949 560.75 10.995V10.995C562.342 10.9969 563.869 11.631 564.994 12.7579C566.119 13.8849 566.751 15.4126 566.75 17.005V17.005C566.747 18.5946 566.114 20.1181 564.989 21.2412C563.864 22.3642 562.34 22.995 560.75 22.995V22.995C559.962 22.9963 559.182 22.8424 558.453 22.5421C557.725 22.2418 557.063 21.801 556.504 21.2447C555.946 20.6885 555.503 20.0278 555.201 19.3004C554.898 18.5729 554.741 17.7929 554.74 17.005ZM505.31 17.005C505.309 15.4126 505.941 13.8849 507.066 12.7579C508.191 11.631 509.718 10.9969 511.31 10.995C512.099 10.995 512.88 11.1506 513.608 11.4527C514.337 11.7549 514.999 12.1977 515.556 12.7559C516.113 13.3141 516.555 13.9767 516.856 14.7058C517.157 15.435 517.311 16.2162 517.31 17.005V17.005C517.31 17.7925 517.155 18.5722 516.853 19.2996C516.551 20.027 516.109 20.6878 515.552 21.2441C514.995 21.8005 514.333 22.2415 513.605 22.5419C512.877 22.8424 512.097 22.9963 511.31 22.995V22.995C509.72 22.995 508.196 22.3642 507.071 21.2412C505.946 20.1181 505.313 18.5946 505.31 17.005V17.005ZM455.88 17.005C455.879 15.4126 456.511 13.8849 457.636 12.7579C458.761 11.631 460.288 10.9969 461.88 10.995C462.669 10.995 463.45 11.1506 464.178 11.4527C464.907 11.7549 465.569 12.1977 466.126 12.7559C466.683 13.3141 467.125 13.9767 467.426 14.7058C467.727 15.435 467.881 16.2162 467.88 17.005C467.88 17.7925 467.725 18.5722 467.423 19.2996C467.121 20.027 466.679 20.6878 466.122 21.2441C465.565 21.8005 464.903 22.2415 464.175 22.5419C463.447 22.8424 462.667 22.9963 461.88 22.995V22.995C460.29 22.995 458.766 22.3642 457.641 21.2412C456.516 20.1181 455.883 18.5946 455.88 17.005V17.005ZM406.449 17.005C406.448 15.4126 407.08 13.8852 408.205 12.7582C409.33 11.6313 410.857 10.9971 412.449 10.995V10.995C414.042 10.9966 415.568 11.6306 416.693 12.7577C417.819 13.8847 418.45 15.4125 418.449 17.005C418.446 18.5946 417.813 20.1181 416.688 21.2412C415.563 22.3642 414.039 22.995 412.449 22.995C410.859 22.995 409.335 22.3642 408.21 21.2412C407.085 20.1181 406.452 18.5946 406.449 17.005ZM357.02 17.005C357.019 15.4126 357.651 13.8849 358.776 12.7579C359.901 11.631 361.428 10.9969 363.02 10.995C364.612 10.9971 366.139 11.6313 367.264 12.7582C368.389 13.8852 369.021 15.4126 369.02 17.005V17.005C369.017 18.5946 368.384 20.1181 367.259 21.2412C366.134 22.3642 364.61 22.995 363.02 22.995C361.43 22.995 359.906 22.3642 358.781 21.2412C357.656 20.1181 357.023 18.5946 357.02 17.005V17.005ZM307.59 17.005C307.589 16.2162 307.743 15.435 308.044 14.7058C308.345 13.9767 308.787 13.3141 309.344 12.7559C309.901 12.1977 310.563 11.7549 311.292 11.4527C312.02 11.1506 312.801 10.995 313.59 10.995V10.995C315.182 10.9969 316.709 11.631 317.834 12.7579C318.959 13.8849 319.591 15.4126 319.59 17.005V17.005C319.587 18.5946 318.954 20.1181 317.829 21.2412C316.704 22.3642 315.18 22.995 313.59 22.995C312.803 22.9963 312.023 22.8424 311.295 22.5419C310.567 22.2415 309.905 21.8005 309.348 21.2441C308.791 20.6878 308.349 20.027 308.047 19.2996C307.745 18.5722 307.59 17.7925 307.59 17.005V17.005ZM258.159 17.005C258.158 16.2162 258.312 15.435 258.613 14.7058C258.914 13.9767 259.356 13.3141 259.913 12.7559C260.47 12.1977 261.132 11.7549 261.861 11.4527C262.589 11.1506 263.37 10.995 264.159 10.995C265.752 10.9966 267.278 11.6306 268.403 12.7577C269.529 13.8847 270.16 15.4125 270.159 17.005C270.156 18.5946 269.523 20.1181 268.398 21.2412C267.273 22.3642 265.749 22.995 264.159 22.995C263.372 22.9963 262.592 22.8424 261.864 22.5419C261.136 22.2415 260.474 21.8005 259.917 21.2441C259.36 20.6878 258.918 20.027 258.616 19.2996C258.314 18.5722 258.159 17.7925 258.159 17.005V17.005ZM208.73 17.005C208.729 16.2171 208.883 15.4366 209.183 14.7081C209.483 13.9797 209.924 13.3175 210.48 12.7594C211.037 12.2014 211.697 11.7583 212.425 11.4556C213.152 11.1528 213.932 10.9963 214.72 10.995V10.995C215.509 10.995 216.29 11.1506 217.018 11.4527C217.747 11.7549 218.409 12.1977 218.966 12.7559C219.523 13.3141 219.965 13.9767 220.266 14.7058C220.567 15.435 220.721 16.2162 220.72 17.005C220.72 17.7925 220.565 18.5722 220.263 19.2996C219.961 20.027 219.519 20.6878 218.962 21.2441C218.405 21.8005 217.743 22.2415 217.015 22.5419C216.287 22.8424 215.507 22.9963 214.72 22.995V22.995C213.933 22.9954 213.154 22.8408 212.427 22.5399C211.7 22.239 211.04 21.7978 210.484 21.2415C209.927 20.6852 209.486 20.0247 209.185 19.2978C208.884 18.5709 208.73 17.7917 208.73 17.005V17.005ZM159.3 17.005C159.299 16.2171 159.453 15.4366 159.753 14.7081C160.053 13.9797 160.494 13.3175 161.05 12.7594C161.607 12.2014 162.267 11.7583 162.995 11.4556C163.722 11.1528 164.502 10.9963 165.29 10.995V10.995C166.079 10.995 166.86 11.1506 167.588 11.4527C168.317 11.7549 168.979 12.1977 169.536 12.7559C170.093 13.3141 170.535 13.9767 170.836 14.7058C171.137 15.435 171.291 16.2162 171.29 17.005V17.005C171.29 17.7925 171.135 18.5722 170.833 19.2996C170.531 20.027 170.089 20.6878 169.532 21.2441C168.975 21.8005 168.313 22.2415 167.585 22.5419C166.857 22.8424 166.077 22.9963 165.29 22.995V22.995C164.503 22.9953 163.724 22.8405 162.997 22.5396C162.271 22.2387 161.61 21.7974 161.054 21.2412C160.498 20.6849 160.056 20.0244 159.755 19.2976C159.454 18.5707 159.3 17.7917 159.3 17.005V17.005ZM109.86 17.005C109.859 15.4126 110.491 13.8849 111.616 12.7579C112.741 11.631 114.268 10.9969 115.86 10.995V10.995C116.649 10.995 117.43 11.1506 118.158 11.4527C118.887 11.7549 119.549 12.1977 120.106 12.7559C120.663 13.3141 121.105 13.9767 121.406 14.7058C121.707 15.435 121.861 16.2162 121.86 17.005C121.86 17.7925 121.705 18.5722 121.403 19.2996C121.101 20.027 120.659 20.6878 120.102 21.2441C119.545 21.8005 118.883 22.2415 118.155 22.5419C117.427 22.8424 116.647 22.9963 115.86 22.995V22.995C114.27 22.995 112.746 22.3642 111.621 21.2412C110.496 20.1181 109.863 18.5946 109.86 17.005V17.005ZM60.43 17.005C60.4292 15.4126 61.0608 13.8849 62.1859 12.7579C63.311 11.631 64.8375 10.9969 66.43 10.995C67.2188 10.995 67.9998 11.1506 68.7284 11.4527C69.457 11.7549 70.1189 12.1977 70.6762 12.7559C71.2335 13.3141 71.6752 13.9767 71.9762 14.7058C72.2771 15.435 72.4313 16.2162 72.43 17.005C72.43 17.7925 72.2747 18.5722 71.9731 19.2996C71.6714 20.027 71.2293 20.6878 70.672 21.2441C70.1147 21.8005 69.4532 22.2415 68.7253 22.5419C67.9974 22.8424 67.2175 22.9963 66.43 22.995V22.995C64.8404 22.995 63.3158 22.3642 62.1909 21.2412C61.066 20.1181 60.4326 18.5946 60.43 17.005V17.005Z" stroke="#E8F6FA" stroke-miterlimit="10"/>
<path d="M653.8 87.035C653.407 87.0354 653.015 86.9949 652.63 86.914C651.858 86.7644 651.124 86.4621 650.47 86.025C650.14 85.8086 649.835 85.5571 649.56 85.275C648.97 84.7258 648.497 84.0634 648.169 83.3275C647.841 82.5915 647.665 81.7971 647.651 80.9914C647.636 80.1858 647.784 79.3855 648.086 78.6384C648.388 77.8913 648.837 77.2126 649.407 76.6427C649.976 76.0729 650.655 75.6237 651.402 75.3218C652.149 75.02 652.949 74.8717 653.755 74.8858C654.561 74.8999 655.355 75.0761 656.091 75.404C656.827 75.7318 657.49 76.2046 658.039 76.794C658.321 77.0693 658.573 77.3744 658.789 77.704C659.222 78.3604 659.525 79.0942 659.68 79.865C659.76 80.2499 659.8 80.6419 659.8 81.035C659.797 82.6254 659.164 84.1499 658.039 85.2745C656.915 86.399 655.39 87.0321 653.8 87.035V87.035Z" stroke="#E8F6FA" stroke-miterlimit="10"/>
<path d="M653.8 124.035C653.407 124.035 653.015 123.995 652.63 123.914C651.858 123.764 651.124 123.462 650.47 123.025C650.14 122.809 649.835 122.557 649.56 122.275C648.97 121.726 648.497 121.063 648.169 120.327C647.841 119.592 647.665 118.797 647.651 117.991C647.636 117.186 647.784 116.386 648.086 115.638C648.388 114.891 648.837 114.213 649.407 113.643C649.976 113.073 650.655 112.624 651.402 112.322C652.149 112.02 652.949 111.872 653.755 111.886C654.561 111.9 655.355 112.076 656.091 112.404C656.827 112.732 657.49 113.205 658.039 113.794C658.321 114.069 658.573 114.374 658.789 114.704C659.222 115.36 659.525 116.094 659.68 116.865C659.76 117.25 659.8 117.642 659.8 118.035C659.797 119.625 659.164 121.15 658.039 122.274C656.915 123.399 655.39 124.032 653.8 124.035V124.035Z" stroke="#E8F6FA" stroke-miterlimit="10"/>
</g>
</mask>
<g mask="url(#mask0)">
<path d="M-15 12L627.5 21C642.833 20.3333 668 47.7 646 162.5" 
class="POT2" id='POT2'  
stroke-dasharray="796" 
stroke-dashoffset="796" 
opacity='0.5'       
stroke="white" stroke-width="45"/>
</g>
<defs>
<clipPath id="clip0">
<rect width="670.799" height="127.327" fill="white"/>
</clipPath>
<clipPath id="clip1">
<rect width="670.799" height="127.327" fill="white"/>
</clipPath>
</defs>
</svg>
