<svg width="324" height="128" viewBox="0 0 324 128" fill="none" xmlns="http://www.w3.org/2000/svg">
<g clip-path="url(#clip0)">
<path d="M289.854 127.325V60.746C289.846 53.6551 287.026 46.857 282.012 41.8429C276.998 36.8288 270.2 34.0082 263.109 34H17C12.4913 34 8.1673 32.2089 4.97919 29.0208C1.79107 25.8327 0 21.5087 0 17C0 12.4913 1.79107 8.1673 4.97919 4.97919C8.1673 1.79107 12.4913 0 17 0H263.109C279.214 0.018263 294.654 6.42416 306.042 17.8123C317.43 29.2005 323.836 44.6409 323.854 60.746V127.325H289.854Z" fill="#1AB5D5"/>
<path class='path-circles' d="M297.295 44.715C296.619 43.275 296.542 41.6254 297.082 40.1289C297.622 38.6325 298.734 37.4117 300.174 36.735V36.735C301.614 36.0587 303.264 35.9822 304.761 36.5223C306.258 37.0623 307.479 38.1748 308.155 39.615V39.615C308.491 40.328 308.682 41.1001 308.719 41.8872C308.756 42.6743 308.637 43.461 308.37 44.2022C308.102 44.9434 307.691 45.6245 307.16 46.2067C306.629 46.7889 305.989 47.2606 305.275 47.595V47.595C304.478 47.9713 303.607 48.1657 302.725 48.164C301.586 48.1656 300.469 47.8419 299.507 47.2309C298.546 46.6199 297.778 45.7471 297.295 44.715V44.715ZM263.214 22.995C262.427 22.9936 261.647 22.8369 260.921 22.534C260.194 22.2311 259.534 21.7878 258.978 21.2296C258.423 20.6714 257.983 20.0092 257.684 19.2809C257.385 18.5526 257.232 17.7724 257.235 16.985V16.985C257.236 16.1971 257.393 15.4171 257.696 14.6897C257.998 13.9622 258.441 13.3015 258.999 12.7453C259.558 12.1891 260.22 11.7482 260.948 11.4479C261.677 11.1476 262.457 10.9937 263.245 10.995V10.995C264.837 11.0011 266.362 11.6383 267.484 12.7668C268.607 13.8953 269.237 15.423 269.235 17.015V17.015C269.23 18.6029 268.595 20.1238 267.471 21.2447C266.346 22.3656 264.823 22.995 263.235 22.995H263.214ZM207.795 17.005C207.795 16.2157 207.95 15.4342 208.252 14.7049C208.554 13.9757 208.997 13.3131 209.555 12.755C210.113 12.1969 210.776 11.7542 211.505 11.4522C212.234 11.1502 213.016 10.9949 213.805 10.995V10.995C215.398 10.9969 216.924 11.631 218.049 12.7579C219.174 13.8849 219.806 15.4126 219.805 17.005V17.005C219.802 18.5946 219.169 20.1181 218.044 21.2412C216.919 22.3642 215.395 22.995 213.805 22.995V22.995C213.017 22.9963 212.237 22.8424 211.508 22.5421C210.78 22.2418 210.118 21.801 209.559 21.2447C209.001 20.6885 208.558 20.0278 208.256 19.3004C207.953 18.5729 207.796 17.7929 207.795 17.005ZM158.365 17.005C158.364 15.4126 158.996 13.8849 160.121 12.7579C161.246 11.631 162.773 10.9969 164.365 10.995C165.154 10.995 165.935 11.1506 166.663 11.4527C167.392 11.7549 168.054 12.1977 168.611 12.7559C169.168 13.3141 169.61 13.9767 169.911 14.7058C170.212 15.435 170.366 16.2162 170.365 17.005V17.005C170.365 17.7925 170.21 18.5722 169.908 19.2996C169.606 20.027 169.164 20.6878 168.607 21.2441C168.05 21.8005 167.388 22.2415 166.66 22.5419C165.932 22.8424 165.153 22.9963 164.365 22.995V22.995C162.775 22.995 161.251 22.3642 160.126 21.2412C159.001 20.1181 158.368 18.5946 158.365 17.005V17.005ZM108.935 17.005C108.934 15.4126 109.566 13.8849 110.691 12.7579C111.816 11.631 113.343 10.9969 114.935 10.995C115.724 10.995 116.505 11.1506 117.233 11.4527C117.962 11.7549 118.624 12.1977 119.181 12.7559C119.738 13.3141 120.18 13.9767 120.481 14.7058C120.782 15.435 120.936 16.2162 120.935 17.005C120.935 17.7925 120.78 18.5722 120.478 19.2996C120.176 20.027 119.734 20.6878 119.177 21.2441C118.62 21.8005 117.958 22.2415 117.23 22.5419C116.502 22.8424 115.722 22.9963 114.935 22.995V22.995C113.345 22.995 111.821 22.3642 110.696 21.2412C109.571 20.1181 108.938 18.5946 108.935 17.005V17.005ZM59.504 17.005C59.5035 15.4126 60.1351 13.8852 61.2602 12.7582C62.3852 11.6313 63.9116 10.9971 65.504 10.995V10.995C67.0966 10.9966 68.6233 11.6306 69.7485 12.7577C70.8736 13.8847 71.5051 15.4125 71.504 17.005C71.5014 18.5946 70.868 20.1181 69.7431 21.2412C68.6182 22.3642 67.0936 22.995 65.504 22.995C63.9145 22.995 62.3898 22.3642 61.2649 21.2412C60.14 20.1181 59.5067 18.5946 59.504 17.005ZM10.075 17.005C10.0742 15.4126 10.7058 13.8849 11.8309 12.7579C12.956 11.631 14.4826 10.9969 16.075 10.995C17.6674 10.9971 19.1938 11.6313 20.3188 12.7582C21.4439 13.8852 22.0755 15.4126 22.075 17.005V17.005C22.0724 18.5946 21.4391 20.1181 20.3141 21.2412C19.1892 22.3642 17.6646 22.995 16.075 22.995C14.4854 22.995 12.9609 22.3642 11.8359 21.2412C10.711 20.1181 10.0777 18.5946 10.075 17.005V17.005Z" stroke="#E8F6FA" stroke-miterlimit="10"/>
<path class='path-circles' d="M306.855 87.035C306.462 87.0354 306.07 86.9949 305.685 86.914C304.913 86.7644 304.179 86.4621 303.525 86.025C303.195 85.8086 302.89 85.5571 302.615 85.275C302.025 84.7258 301.553 84.0634 301.225 83.3275C300.896 82.5915 300.72 81.7971 300.706 80.9914C300.691 80.1858 300.84 79.3855 301.141 78.6384C301.443 77.8913 301.892 77.2126 302.462 76.6427C303.031 76.0729 303.71 75.6237 304.457 75.3218C305.204 75.02 306.004 74.8717 306.81 74.8858C307.616 74.8999 308.41 75.0761 309.146 75.404C309.882 75.7318 310.545 76.2046 311.094 76.794C311.376 77.0693 311.628 77.3744 311.844 77.704C312.277 78.3604 312.58 79.0942 312.735 79.865C312.815 80.2499 312.855 80.6419 312.855 81.035C312.852 82.6254 312.219 84.1499 311.094 85.2745C309.97 86.399 308.445 87.0321 306.855 87.035V87.035Z" fill="#DC4137" stroke="#E8F6FA" stroke-miterlimit="10"/>
<path class='path-circles' d="M306.855 124.035C306.462 124.035 306.07 123.995 305.685 123.914C304.913 123.764 304.179 123.462 303.525 123.025C303.195 122.809 302.89 122.557 302.615 122.275C302.025 121.726 301.553 121.063 301.225 120.327C300.896 119.592 300.72 118.797 300.706 117.991C300.691 117.186 300.84 116.386 301.141 115.638C301.443 114.891 301.892 114.213 302.462 113.643C303.031 113.073 303.71 112.624 304.457 112.322C305.204 112.02 306.004 111.872 306.81 111.886C307.616 111.9 308.41 112.076 309.146 112.404C309.882 112.732 310.545 113.205 311.094 113.794C311.376 114.069 311.628 114.374 311.844 114.704C312.277 115.36 312.58 116.094 312.735 116.865C312.815 117.25 312.855 117.642 312.855 118.035C312.852 119.625 312.219 121.15 311.094 122.274C309.97 123.399 308.445 124.032 306.855 124.035V124.035Z" fill="#DC4137" stroke="#E8F6FA" stroke-miterlimit="10"/>
<path class='path-circles' d="M302.855 48.035C302.462 48.0354 302.07 47.9949 301.685 47.914C300.913 47.7644 300.179 47.4621 299.525 47.025C299.195 46.8086 298.89 46.5571 298.615 46.275C298.025 45.7258 297.553 45.0634 297.225 44.3275C296.896 43.5915 296.72 42.7971 296.706 41.9914C296.691 41.1858 296.84 40.3855 297.141 39.6384C297.443 38.8913 297.892 38.2126 298.462 37.6427C299.031 37.0729 299.71 36.6237 300.457 36.3218C301.204 36.02 302.004 35.8717 302.81 35.8858C303.616 35.8999 304.41 36.0761 305.146 36.404C305.882 36.7318 306.545 37.2046 307.094 37.794C307.376 38.0693 307.628 38.3744 307.844 38.704C308.277 39.3604 308.58 40.0942 308.735 40.865C308.815 41.2499 308.855 41.6419 308.855 42.035C308.852 43.6254 308.219 45.1499 307.094 46.2745C305.97 47.399 304.445 48.0321 302.855 48.035V48.035Z" fill="#DC4137" stroke="#E8F6FA" stroke-miterlimit="10"/>
<path class='path-circles' d="M262.855 23.035C262.462 23.0354 262.07 22.9949 261.685 22.914C260.913 22.7644 260.179 22.4621 259.525 22.025C259.195 21.8086 258.89 21.5571 258.615 21.275C258.025 20.7258 257.553 20.0634 257.225 19.3275C256.896 18.5915 256.72 17.7971 256.706 16.9914C256.691 16.1858 256.84 15.3855 257.141 14.6384C257.443 13.8913 257.892 13.2126 258.462 12.6427C259.031 12.0729 259.71 11.6237 260.457 11.3218C261.204 11.02 262.004 10.8717 262.81 10.8858C263.616 10.8999 264.41 11.0761 265.146 11.404C265.882 11.7318 266.545 12.2046 267.094 12.794C267.376 13.0693 267.628 13.3744 267.844 13.704C268.277 14.3604 268.58 15.0942 268.735 15.865C268.815 16.2499 268.855 16.6419 268.855 17.035C268.852 18.6254 268.219 20.1499 267.094 21.2745C265.97 22.399 264.445 23.0321 262.855 23.035V23.035Z" fill="#DC4137" stroke="#E8F6FA" stroke-miterlimit="10"/>
<path class='path-circles' d="M213.855 23.035C213.462 23.0354 213.07 22.9949 212.685 22.914C211.913 22.7644 211.179 22.4621 210.525 22.025C210.195 21.8086 209.89 21.5571 209.615 21.275C209.025 20.7258 208.553 20.0634 208.225 19.3275C207.896 18.5915 207.72 17.7971 207.706 16.9914C207.691 16.1858 207.84 15.3855 208.141 14.6384C208.443 13.8913 208.892 13.2126 209.462 12.6427C210.031 12.0729 210.71 11.6237 211.457 11.3218C212.204 11.02 213.004 10.8717 213.81 10.8858C214.616 10.8999 215.41 11.0761 216.146 11.404C216.882 11.7318 217.545 12.2046 218.094 12.794C218.376 13.0693 218.628 13.3744 218.844 13.704C219.277 14.3604 219.58 15.0942 219.735 15.865C219.815 16.2499 219.855 16.6419 219.855 17.035C219.852 18.6254 219.219 20.1499 218.094 21.2745C216.97 22.399 215.445 23.0321 213.855 23.035V23.035Z" fill="#DC4137" stroke="#E8F6FA" stroke-miterlimit="10"/>
<path class='path-circles' d="M164.855 23.035C164.462 23.0354 164.07 22.9949 163.685 22.914C162.913 22.7644 162.179 22.4621 161.525 22.025C161.195 21.8086 160.89 21.5571 160.615 21.275C160.025 20.7258 159.553 20.0634 159.225 19.3275C158.896 18.5915 158.72 17.7971 158.706 16.9914C158.691 16.1858 158.84 15.3855 159.141 14.6384C159.443 13.8913 159.892 13.2126 160.462 12.6427C161.031 12.0729 161.71 11.6237 162.457 11.3218C163.204 11.02 164.004 10.8717 164.81 10.8858C165.616 10.8999 166.41 11.0761 167.146 11.404C167.882 11.7318 168.545 12.2046 169.094 12.794C169.376 13.0693 169.628 13.3744 169.844 13.704C170.277 14.3604 170.58 15.0942 170.735 15.865C170.815 16.2499 170.855 16.6419 170.855 17.035C170.852 18.6254 170.219 20.1499 169.094 21.2745C167.97 22.399 166.445 23.0321 164.855 23.035V23.035Z" fill="#DC4137" stroke="#E8F6FA" stroke-miterlimit="10"/>
<path class='path-circles' d="M114.855 23.035C114.462 23.0354 114.07 22.9949 113.685 22.914C112.913 22.7644 112.179 22.4621 111.525 22.025C111.195 21.8086 110.89 21.5571 110.615 21.275C110.025 20.7258 109.553 20.0634 109.225 19.3275C108.896 18.5915 108.72 17.7971 108.706 16.9914C108.691 16.1858 108.84 15.3855 109.141 14.6384C109.443 13.8913 109.892 13.2126 110.462 12.6427C111.031 12.0729 111.71 11.6237 112.457 11.3218C113.204 11.02 114.004 10.8717 114.81 10.8858C115.616 10.8999 116.41 11.0761 117.146 11.404C117.882 11.7318 118.545 12.2046 119.094 12.794C119.376 13.0693 119.628 13.3744 119.844 13.704C120.277 14.3604 120.58 15.0942 120.735 15.865C120.815 16.2499 120.855 16.6419 120.855 17.035C120.852 18.6254 120.219 20.1499 119.094 21.2745C117.97 22.399 116.445 23.0321 114.855 23.035V23.035Z" fill="#DC4137" stroke="#E8F6FA" stroke-miterlimit="10"/>
<path class='path-circles' d="M65.855 23.035C65.4619 23.0354 65.0697 22.9949 64.685 22.914C63.913 22.7644 63.1787 22.4621 62.525 22.025C62.1955 21.8086 61.8904 21.5571 61.615 21.275C61.0255 20.7258 60.5525 20.0634 60.2245 19.3275C59.8965 18.5915 59.7201 17.7971 59.7058 16.9914C59.6915 16.1858 59.8395 15.3855 60.1412 14.6384C60.4429 13.8913 60.892 13.2126 61.4616 12.6427C62.0313 12.0729 62.71 11.6237 63.4571 11.3218C64.2041 11.02 65.0043 10.8717 65.81 10.8858C66.6156 10.8999 67.4101 11.0761 68.1461 11.404C68.8822 11.7318 69.5446 12.2046 70.094 12.794C70.3762 13.0693 70.6277 13.3744 70.844 13.704C71.277 14.3604 71.5796 15.0942 71.735 15.865C71.815 16.2499 71.8552 16.6419 71.855 17.035C71.8521 18.6254 71.219 20.1499 70.0945 21.2745C68.9699 22.399 67.4454 23.0321 65.855 23.035V23.035Z" fill="#DC4137" stroke="#E8F6FA" stroke-miterlimit="10"/>
<path class='path-circles' d="M15.855 23.035C15.4619 23.0354 15.0697 22.9949 14.685 22.914C13.913 22.7644 13.1787 22.4621 12.525 22.025C12.1955 21.8086 11.8904 21.5571 11.615 21.275C11.0255 20.7258 10.5525 20.0634 10.2245 19.3275C9.8965 18.5915 9.72009 17.7971 9.70578 16.9914C9.69147 16.1858 9.83953 15.3855 10.1412 14.6384C10.4429 13.8913 10.892 13.2126 11.4616 12.6427C12.0313 12.0729 12.71 11.6237 13.4571 11.3218C14.2041 11.02 15.0043 10.8717 15.81 10.8858C16.6156 10.8999 17.4101 11.0761 18.1461 11.404C18.8822 11.7318 19.5446 12.2046 20.094 12.794C20.3762 13.0693 20.6277 13.3744 20.844 13.704C21.277 14.3604 21.5796 15.0942 21.735 15.865C21.815 16.2499 21.8552 16.6419 21.855 17.035C21.8521 18.6254 21.219 20.1499 20.0945 21.2745C18.9699 22.399 17.4454 23.0321 15.855 23.035V23.035Z" fill="#DC4137" stroke="#E8F6FA" stroke-miterlimit="10"/>
</g>
<mask id="mask0" mask-type="alpha" maskUnits="userSpaceOnUse" x="0" y="0" width="324" height="128">
<g clip-path="url(#clip1)">
<path  d="M289.854 127.325V60.746C289.846 53.6551 287.026 46.857 282.012 41.8429C276.998 36.8288 270.2 34.0082 263.109 34H17C12.4913 34 8.1673 32.2089 4.97919 29.0208C1.79107 25.8327 0 21.5087 0 17C0 12.4913 1.79107 8.1673 4.97919 4.97919C8.1673 1.79107 12.4913 0 17 0H263.109C279.214 0.018263 294.654 6.42416 306.042 17.8123C317.43 29.2005 323.836 44.6409 323.854 60.746V127.325H289.854Z" fill="#1AB5D5"/>
<path d="M297.295 44.715C296.619 43.275 296.542 41.6254 297.082 40.1289C297.622 38.6325 298.734 37.4117 300.174 36.735V36.735C301.614 36.0587 303.264 35.9822 304.761 36.5223C306.258 37.0623 307.479 38.1748 308.155 39.615V39.615C308.491 40.328 308.682 41.1001 308.719 41.8872C308.756 42.6743 308.637 43.461 308.37 44.2022C308.102 44.9434 307.691 45.6245 307.16 46.2067C306.629 46.7889 305.989 47.2606 305.275 47.595V47.595C304.478 47.9713 303.607 48.1657 302.725 48.164C301.586 48.1656 300.469 47.8419 299.507 47.2309C298.546 46.6199 297.778 45.7471 297.295 44.715V44.715ZM263.214 22.995C262.427 22.9936 261.647 22.8369 260.921 22.534C260.194 22.2311 259.534 21.7878 258.978 21.2296C258.423 20.6714 257.983 20.0092 257.684 19.2809C257.385 18.5526 257.232 17.7724 257.235 16.985V16.985C257.236 16.1971 257.393 15.4171 257.696 14.6897C257.998 13.9622 258.441 13.3015 258.999 12.7453C259.558 12.1891 260.22 11.7482 260.948 11.4479C261.677 11.1476 262.457 10.9937 263.245 10.995V10.995C264.837 11.0011 266.362 11.6383 267.484 12.7668C268.607 13.8953 269.237 15.423 269.235 17.015V17.015C269.23 18.6029 268.595 20.1238 267.471 21.2447C266.346 22.3656 264.823 22.995 263.235 22.995H263.214ZM207.795 17.005C207.795 16.2157 207.95 15.4342 208.252 14.7049C208.554 13.9757 208.997 13.3131 209.555 12.755C210.113 12.1969 210.776 11.7542 211.505 11.4522C212.234 11.1502 213.016 10.9949 213.805 10.995V10.995C215.398 10.9969 216.924 11.631 218.049 12.7579C219.174 13.8849 219.806 15.4126 219.805 17.005V17.005C219.802 18.5946 219.169 20.1181 218.044 21.2412C216.919 22.3642 215.395 22.995 213.805 22.995V22.995C213.017 22.9963 212.237 22.8424 211.508 22.5421C210.78 22.2418 210.118 21.801 209.559 21.2447C209.001 20.6885 208.558 20.0278 208.256 19.3004C207.953 18.5729 207.796 17.7929 207.795 17.005ZM158.365 17.005C158.364 15.4126 158.996 13.8849 160.121 12.7579C161.246 11.631 162.773 10.9969 164.365 10.995C165.154 10.995 165.935 11.1506 166.663 11.4527C167.392 11.7549 168.054 12.1977 168.611 12.7559C169.168 13.3141 169.61 13.9767 169.911 14.7058C170.212 15.435 170.366 16.2162 170.365 17.005V17.005C170.365 17.7925 170.21 18.5722 169.908 19.2996C169.606 20.027 169.164 20.6878 168.607 21.2441C168.05 21.8005 167.388 22.2415 166.66 22.5419C165.932 22.8424 165.153 22.9963 164.365 22.995V22.995C162.775 22.995 161.251 22.3642 160.126 21.2412C159.001 20.1181 158.368 18.5946 158.365 17.005V17.005ZM108.935 17.005C108.934 15.4126 109.566 13.8849 110.691 12.7579C111.816 11.631 113.343 10.9969 114.935 10.995C115.724 10.995 116.505 11.1506 117.233 11.4527C117.962 11.7549 118.624 12.1977 119.181 12.7559C119.738 13.3141 120.18 13.9767 120.481 14.7058C120.782 15.435 120.936 16.2162 120.935 17.005C120.935 17.7925 120.78 18.5722 120.478 19.2996C120.176 20.027 119.734 20.6878 119.177 21.2441C118.62 21.8005 117.958 22.2415 117.23 22.5419C116.502 22.8424 115.722 22.9963 114.935 22.995V22.995C113.345 22.995 111.821 22.3642 110.696 21.2412C109.571 20.1181 108.938 18.5946 108.935 17.005V17.005ZM59.504 17.005C59.5035 15.4126 60.1351 13.8852 61.2602 12.7582C62.3852 11.6313 63.9116 10.9971 65.504 10.995V10.995C67.0966 10.9966 68.6233 11.6306 69.7485 12.7577C70.8736 13.8847 71.5051 15.4125 71.504 17.005C71.5014 18.5946 70.868 20.1181 69.7431 21.2412C68.6182 22.3642 67.0936 22.995 65.504 22.995C63.9145 22.995 62.3898 22.3642 61.2649 21.2412C60.14 20.1181 59.5067 18.5946 59.504 17.005ZM10.075 17.005C10.0742 15.4126 10.7058 13.8849 11.8309 12.7579C12.956 11.631 14.4826 10.9969 16.075 10.995C17.6674 10.9971 19.1938 11.6313 20.3188 12.7582C21.4439 13.8852 22.0755 15.4126 22.075 17.005V17.005C22.0724 18.5946 21.4391 20.1181 20.3141 21.2412C19.1892 22.3642 17.6646 22.995 16.075 22.995C14.4854 22.995 12.9609 22.3642 11.8359 21.2412C10.711 20.1181 10.0777 18.5946 10.075 17.005V17.005Z" stroke="#E8F6FA" stroke-miterlimit="10"/>
<path d="M306.855 87.035C306.462 87.0354 306.07 86.9949 305.685 86.914C304.913 86.7644 304.179 86.4621 303.525 86.025C303.195 85.8086 302.89 85.5571 302.615 85.275C302.025 84.7258 301.553 84.0634 301.225 83.3275C300.896 82.5915 300.72 81.7971 300.706 80.9914C300.691 80.1858 300.84 79.3855 301.141 78.6384C301.443 77.8913 301.892 77.2126 302.462 76.6427C303.031 76.0729 303.71 75.6237 304.457 75.3218C305.204 75.02 306.004 74.8717 306.81 74.8858C307.616 74.8999 308.41 75.0761 309.146 75.404C309.882 75.7318 310.545 76.2046 311.094 76.794C311.376 77.0693 311.628 77.3744 311.844 77.704C312.277 78.3604 312.58 79.0942 312.735 79.865C312.815 80.2499 312.855 80.6419 312.855 81.035C312.852 82.6254 312.219 84.1499 311.094 85.2745C309.97 86.399 308.445 87.0321 306.855 87.035V87.035Z" stroke="#E8F6FA" stroke-miterlimit="10"/>
<path d="M306.855 124.035C306.462 124.035 306.07 123.995 305.685 123.914C304.913 123.764 304.179 123.462 303.525 123.025C303.195 122.809 302.89 122.557 302.615 122.275C302.025 121.726 301.553 121.063 301.225 120.327C300.896 119.592 300.72 118.797 300.706 117.991C300.691 117.186 300.84 116.386 301.141 115.638C301.443 114.891 301.892 114.213 302.462 113.643C303.031 113.073 303.71 112.624 304.457 112.322C305.204 112.02 306.004 111.872 306.81 111.886C307.616 111.9 308.41 112.076 309.146 112.404C309.882 112.732 310.545 113.205 311.094 113.794C311.376 114.069 311.628 114.374 311.844 114.704C312.277 115.36 312.58 116.094 312.735 116.865C312.815 117.25 312.855 117.642 312.855 118.035C312.852 119.625 312.219 121.15 311.094 122.274C309.97 123.399 308.445 124.032 306.855 124.035V124.035Z" stroke="#E8F6FA" stroke-miterlimit="10"/>
</g>
</mask>
<g mask="url(#mask0)">
<path class='POT4' d="M-21.5 19H278C297.333 21.1667 330.2 60.1 307 198.5" opacity='0.5' stroke="white" stroke-width="52"/>
</g>
<defs>
<clipPath id="clip0">
<rect width="323.854" height="127.327" fill="white"/>
</clipPath>
<clipPath id="clip1">
<rect width="323.854" height="127.327" fill="white"/>
</clipPath>
</defs>
</svg>
