<svg width="34" height="104" viewBox="0 0 34 104" fill="none" xmlns="http://www.w3.org/2000/svg">
<g clip-path="url(#clip0)">
<path d="M17 103.938C12.4913 103.938 8.16731 102.147 4.97919 98.9588C1.79107 95.7707 0 91.4467 0 86.938V0H34V86.938C34 91.4467 32.209 95.7707 29.0209 98.9588C25.8328 102.147 21.5087 103.938 17 103.938V103.938Z" fill="#1AB5D5"/>
<path d="M10.9951 86.007C10.9951 84.4157 11.6272 82.8896 12.7524 81.7644C13.8776 80.6391 15.4038 80.007 16.9951 80.007V80.007C17.7833 80.0058 18.5641 80.1602 19.2925 80.4613C20.021 80.7624 20.6829 81.2043 21.2403 81.7617C21.7977 82.3191 22.2396 82.981 22.5407 83.7095C22.8418 84.438 22.9962 85.2187 22.9951 86.007V86.007C22.9951 87.5983 22.3629 89.1244 21.2377 90.2496C20.1125 91.3749 18.5864 92.007 16.9951 92.007V92.007C15.4042 92.0057 13.8788 91.3731 12.7538 90.2482C11.6289 89.1232 10.9964 87.5979 10.9951 86.007V86.007ZM10.9951 51.767C10.9951 50.1757 11.6272 48.6496 12.7524 47.5243C13.8776 46.3991 15.4038 45.767 16.9951 45.767V45.767C17.7833 45.7658 18.5641 45.9202 19.2925 46.2213C20.021 46.5224 20.6829 46.9643 21.2403 47.5217C21.7977 48.0791 22.2396 48.741 22.5407 49.4695C22.8418 50.198 22.9962 50.9787 22.9951 51.767V51.767C22.9951 53.3583 22.3629 54.8844 21.2377 56.0096C20.1125 57.1349 18.5864 57.767 16.9951 57.767V57.767C15.4042 57.7657 13.8788 57.1331 12.7538 56.0082C11.6289 54.8832 10.9964 53.3579 10.9951 51.767V51.767ZM10.9951 20.312C10.9951 18.7207 11.6272 17.1946 12.7524 16.0694C13.8776 14.9441 15.4038 14.312 16.9951 14.312V14.312C17.7833 14.3109 18.5639 14.4654 19.2924 14.7666C20.0208 15.0677 20.6826 15.5096 21.24 16.067C21.7974 16.6244 22.2393 17.2862 22.5405 18.0146C22.8416 18.7431 22.9961 19.5238 22.9951 20.312C22.9951 21.9033 22.3629 23.4294 21.2377 24.5546C20.1125 25.6799 18.5864 26.312 16.9951 26.312V26.312C15.4042 26.3107 13.8788 25.6781 12.7538 24.5532C11.6289 23.4282 10.9964 21.9029 10.9951 20.312V20.312Z" stroke="white" stroke-miterlimit="10"/>
</g>
<mask id="mask0" mask-type="alpha" maskUnits="userSpaceOnUse" x="0" y="0" width="34" height="104">
<path d="M17 103.938C12.4913 103.938 8.16731 102.147 4.97919 98.9588C1.79107 95.7707 0 91.4467 0 86.938V0H34V86.938C34 91.4467 32.209 95.7707 29.0209 98.9588C25.8328 102.147 21.5087 103.938 17 103.938Z" fill="#1AB5D5"/>
<path d="M10.9951 86.007C10.9951 84.4157 11.6272 82.8896 12.7524 81.7644C13.8776 80.6391 15.4038 80.007 16.9951 80.007C17.7833 80.0058 18.5641 80.1602 19.2925 80.4613C20.021 80.7624 20.6829 81.2043 21.2403 81.7617C21.7977 82.3191 22.2396 82.981 22.5407 83.7095C22.8418 84.438 22.9962 85.2187 22.9951 86.007C22.9951 87.5983 22.3629 89.1244 21.2377 90.2496C20.1125 91.3748 18.5864 92.007 16.9951 92.007C15.4042 92.0057 13.8788 91.3731 12.7538 90.2482C11.6289 89.1232 10.9964 87.5979 10.9951 86.007ZM10.9951 51.767C10.9951 50.1757 11.6272 48.6496 12.7524 47.5243C13.8776 46.3991 15.4038 45.767 16.9951 45.767C17.7833 45.7658 18.5641 45.9202 19.2925 46.2213C20.021 46.5224 20.6829 46.9643 21.2403 47.5217C21.7977 48.0791 22.2396 48.741 22.5407 49.4695C22.8418 50.198 22.9962 50.9787 22.9951 51.767C22.9951 53.3583 22.3629 54.8844 21.2377 56.0096C20.1125 57.1349 18.5864 57.767 16.9951 57.767C15.4042 57.7657 13.8788 57.1331 12.7538 56.0082C11.6289 54.8832 10.9964 53.3579 10.9951 51.767ZM10.9951 20.312C10.9951 18.7207 11.6272 17.1946 12.7524 16.0693C13.8776 14.9441 15.4038 14.312 16.9951 14.312C17.7833 14.3109 18.5639 14.4654 19.2924 14.7666C20.0208 15.0677 20.6826 15.5096 21.24 16.067C21.7974 16.6244 22.2393 17.2862 22.5405 18.0146C22.8416 18.7431 22.9961 19.5238 22.9951 20.312C22.9951 21.9033 22.3629 23.4294 21.2377 24.5546C20.1125 25.6799 18.5864 26.312 16.9951 26.312C15.4042 26.3107 13.8788 25.6781 12.7538 24.5532C11.6289 23.4282 10.9964 21.9029 10.9951 20.312Z" stroke="white" stroke-miterlimit="10"/>
</mask>
<g mask="url(#mask0)">
<path class='POT5' opacity='0.5' d="M17 -9V115.5" stroke="white" stroke-width="37"/>
</g>
<defs>
<clipPath id="clip0">
<rect width="34" height="103.938" fill="white"/>
</clipPath>
</defs>
</svg>
