<svg xmlns="http://www.w3.org/2000/svg" xmlns:xlink="http://www.w3.org/1999/xlink" width="906.628" height="903.806" viewBox="0 0 906.628 903.806">
  <defs>
    <clipPath id="clip-path">
      <path id="Path_49" data-name="Path 49" d="M-250.022,205.4H-901.507L-1156.65,1109.2h906.628Z" fill="none"/>
    </clipPath>
  </defs>
  <g id="Group_80" data-name="Group 80" transform="translate(1156.65 -205.396)">
    <g id="Group_79" data-name="Group 79" clip-path="url(#clip-path)">
      <g id="Group_78" data-name="Group 78">
        <g id="Group_48" data-name="Group 48" opacity="0.3">
          <ellipse id="Ellipse_6" data-name="Ellipse 6" cx="1187.673" cy="434.714" rx="1187.673" ry="434.714" transform="translate(-1583.923 127.419)" fill="none" stroke="#8dcbd8" stroke-miterlimit="10" stroke-width="0.5"/>
        </g>
        <g id="Group_49" data-name="Group 49" opacity="0.4">
          <ellipse id="Ellipse_7" data-name="Ellipse 7" cx="913.594" cy="317.31" rx="913.594" ry="317.31" transform="translate(-1309.844 244.823)" fill="none" stroke="#8dcbd8" stroke-miterlimit="10" stroke-width="0.5"/>
        </g>
        <g id="Group_50" data-name="Group 50" opacity="0.5">
          <ellipse id="Ellipse_8" data-name="Ellipse 8" cx="702.765" cy="231.613" rx="702.765" ry="231.613" transform="translate(-1099.015 330.52)" fill="none" stroke="#8dcbd8" stroke-miterlimit="10" stroke-width="0.5"/>
        </g>
        <g id="Group_57" data-name="Group 57" opacity="0.6">
          <g id="Group_53" data-name="Group 53">
            <g id="Group_52" data-name="Group 52">
              <g id="Group_51" data-name="Group 51">
                <path id="Path_42" data-name="Path 42" d="M216.875,562.133c0,39.677-46.875,74.252-121,103.972C52.016,683.691-1.2,703.16-63.535,715.061c-50.5,9.642-106.757,12.678-166.076,17.617-53.027,4.416-108.8,11.291-166.639,11.291s-113.61-6.875-166.637-11.291c-59.32-4.939-115.58-7.975-166.079-17.617C-791.3,703.16-844.519,683.69-888.378,666.1c-74.123-29.72-121-64.294-121-103.971s46.875-74.252,121-103.973c43.859-17.585,97.079-37.055,159.41-48.955,50.5-9.642,106.757-12.678,166.076-17.617,53.027-4.416,108.8-11.291,166.639-11.291s113.61,6.875,166.637,11.29c59.32,4.94,115.58,7.976,166.079,17.618,62.332,11.9,115.553,31.371,159.412,48.956C170,487.882,216.875,522.456,216.875,562.133Z" fill="none" stroke="#8dcbd8" stroke-miterlimit="10" stroke-width="0.548"/>
              </g>
            </g>
          </g>
          <g id="Group_56" data-name="Group 56">
            <g id="Group_55" data-name="Group 55">
              <g id="Group_54" data-name="Group 54">
                <path id="Path_43" data-name="Path 43" d="M146.338,562.133c0,35.113-41.482,65.709-107.079,92.011C.445,669.706-46.652,686.936-101.812,697.468c-44.688,8.532-94.475,11.219-146.97,15.59-46.926,3.907-96.284,9.992-147.468,9.992s-100.54-6.085-147.466-9.992C-596.212,708.687-646,706-690.689,697.467c-55.161-10.532-102.259-27.761-141.072-43.324-65.6-26.3-107.077-56.9-107.077-92.01s41.482-65.71,107.079-92.011c38.814-15.563,85.911-32.792,141.071-43.324,44.688-8.532,94.475-11.219,146.97-15.59,46.926-3.908,96.284-9.992,147.468-9.992s100.54,6.084,147.466,9.992c52.5,4.371,102.284,7.058,146.973,15.59C-46.65,437.33.448,454.56,39.261,470.123,104.857,496.424,146.338,527.02,146.338,562.133Z" fill="none" stroke="#8dcbd8" stroke-miterlimit="10" stroke-width="0.485"/>
              </g>
            </g>
          </g>
        </g>
        <g id="Group_60" data-name="Group 60">
          <g id="Group_59" data-name="Group 59">
            <g id="Group_58" data-name="Group 58">
              <path id="Path_44" data-name="Path 44" d="M20.587,562.133c0,33.148-45.338,62.288-117,84.459a824.727,824.727,0,0,1-148.255,31.495c-46.934,5.449-98.136,6.448-151.577,6.448s-104.643-1-151.578-6.448a824.618,824.618,0,0,1-148.253-31.495c-71.668-22.171-117.006-51.311-117.006-84.459s45.338-62.288,117.005-84.459a824.642,824.642,0,0,1,148.255-31.5c46.934-5.45,98.136-6.448,151.577-6.448s104.643,1,151.578,6.448a824.533,824.533,0,0,1,148.253,31.5C-24.751,499.844,20.587,528.985,20.587,562.133Z" fill="none" stroke="#8dcbd8" stroke-miterlimit="10" stroke-width="0.5"/>
            </g>
          </g>
        </g>
        <g id="Group_63" data-name="Group 63">
          <g id="Group_62" data-name="Group 62">
            <g id="Group_61" data-name="Group 61">
              <path id="Path_45" data-name="Path 45" d="M-75.375,562.133c0,24.384-35.687,45.544-91.576,61.762-31.79,9.225-70.143,18.494-113.454,23.23-35.891,3.924-75.03,4.082-115.845,4.082s-79.955-.158-115.846-4.083c-43.311-4.735-81.664-14-113.453-23.229-55.89-16.218-91.576-37.378-91.576-61.762s35.687-45.544,91.576-61.762c31.79-9.225,70.143-18.495,113.454-23.23,35.891-3.924,75.03-4.082,115.845-4.082s79.955.158,115.846,4.082c43.311,4.736,81.664,14.005,113.453,23.23C-111.061,516.589-75.375,537.749-75.375,562.133Z" fill="none" stroke="#8dcbd8" stroke-miterlimit="10" stroke-width="0.5"/>
            </g>
          </g>
        </g>
        <g id="Group_66" data-name="Group 66" opacity="0.5">
          <g id="Group_65" data-name="Group 65">
            <g id="Group_64" data-name="Group 64">
              <path id="Path_46" data-name="Path 46" d="M-149.192,562.133c0,12.707-14.888,23.654-38.253,33.711-13.741,5.914-30.282,13.1-50.118,17.563-15.87,3.574-33.8,4.654-52.724,7.073-16.692,2.135-34.24,5.772-52.756,6.861-17.116,1.007-34.959-.461-53.207-.461s-36.092,1.468-53.209.461c-18.516-1.089-36.064-4.726-52.757-6.861-18.924-2.42-36.857-3.5-52.728-7.074-19.835-4.467-36.377-11.65-50.118-17.565-23.361-10.056-38.246-21-38.246-33.708s14.888-23.655,38.253-33.711c13.741-5.915,30.282-13.1,50.118-17.564,15.87-3.573,33.8-4.653,52.724-7.073,16.692-2.134,34.24-5.771,52.756-6.86,17.116-1.007,34.959.46,53.207.46s36.092-1.467,53.209-.46c18.516,1.089,36.064,4.726,52.757,6.861,18.924,2.42,36.857,3.5,52.728,7.074,19.835,4.466,36.377,11.65,50.118,17.565C-164.077,538.48-149.192,549.426-149.192,562.133Z" fill="none" stroke="#8dcbd8" stroke-miterlimit="10" stroke-width="0.5"/>
            </g>
          </g>
        </g>
        <g id="Group_69" data-name="Group 69" opacity="0.6">
          <g id="Group_68" data-name="Group 68">
            <g id="Group_67" data-name="Group 67">
              <path id="Path_47" data-name="Path 47" d="M-205.975,562.133c0,13.172-22.177,24.135-56.063,32.807-18.747,4.8-41.114,10.561-66.443,13.021-21.014,2.04-43.925,1.163-67.769,1.163s-46.755.877-67.768-1.163c-25.331-2.46-47.7-8.224-66.448-13.022-33.884-8.672-56.059-19.635-56.059-32.806s22.177-24.136,56.063-32.808c18.747-4.8,41.114-10.561,66.443-13.02,21.014-2.041,43.925-1.163,67.769-1.163s46.755-.878,67.768,1.163c25.331,2.459,47.7,8.223,66.448,13.021C-228.15,538-205.975,548.961-205.975,562.133Z" fill="none" stroke="#8dcbd8" stroke-miterlimit="10" stroke-width="0.5"/>
            </g>
          </g>
        </g>
        <g id="Group_72" data-name="Group 72">
          <g id="Group_71" data-name="Group 71">
            <g id="Group_70" data-name="Group 70">
              <path id="Path_48" data-name="Path 48" d="M-249.654,562.133c0,9.674-17.532,17.459-43.882,23.8-14.4,3.464-31.468,8.173-50.847,9.948-16.087,1.473-33.631.284-51.867.284s-35.78,1.189-51.867-.284c-19.381-1.775-36.455-6.485-50.853-9.949-26.347-6.339-43.876-14.124-43.876-23.8s17.532-17.46,43.882-23.8c14.4-3.463,31.468-8.173,50.847-9.947,16.087-1.473,33.631-.284,51.867-.284s35.78-1.189,51.867.284c19.381,1.774,36.455,6.484,50.853,9.949C-267.183,544.675-249.654,552.46-249.654,562.133Z" fill="none" stroke="#8dcbd8" stroke-miterlimit="10" stroke-width="0.5"/>
            </g>
          </g>
        </g>
        <g id="Group_73" data-name="Group 73">
          <ellipse id="Ellipse_9" data-name="Ellipse 9" cx="111.997" cy="25.569" rx="111.997" ry="25.569" transform="translate(-508.247 536.564)" fill="none" stroke="#8dcbd8" stroke-miterlimit="10" stroke-width="0.5"/>
        </g>
        <g id="Group_74" data-name="Group 74" opacity="0.6">
          <ellipse id="Ellipse_10" data-name="Ellipse 10" cx="86.152" cy="18.664" rx="86.152" ry="18.664" transform="translate(-482.402 543.469)" fill="none" stroke="#8dcbd8" stroke-miterlimit="10" stroke-width="0.5"/>
        </g>
        <g id="Group_75" data-name="Group 75">
          <ellipse id="Ellipse_11" data-name="Ellipse 11" cx="39.213" cy="7.258" rx="39.213" ry="7.258" transform="translate(-435.463 554.875)" fill="none" stroke="#8dcbd8" stroke-miterlimit="10" stroke-width="0.5"/>
        </g>
        <g id="Group_76" data-name="Group 76">
          <ellipse id="Ellipse_12" data-name="Ellipse 12" cx="23.203" cy="3.867" rx="23.203" ry="3.867" transform="translate(-419.453 558.266)" fill="none" stroke="#8dcbd8" stroke-miterlimit="10" stroke-width="0.5"/>
        </g>
        <g id="Group_77" data-name="Group 77">
          <ellipse id="Ellipse_13" data-name="Ellipse 13" cx="66.27" cy="13.623" rx="66.27" ry="13.623" transform="translate(-462.52 548.51)" fill="none" stroke="#8dcbd8" stroke-miterlimit="10" stroke-width="0.5"/>
        </g>
      </g>
    </g>
  </g>
</svg>
