<?xml version="1.0" encoding="utf-8"?>
<!-- Generator: Adobe Illustrator 23.0.2, SVG Export Plug-In . SVG Version: 6.00 Build 0)  -->
<svg version="1.1" id="Layer_1" xmlns="http://www.w3.org/2000/svg" xmlns:xlink="http://www.w3.org/1999/xlink" x="0px" y="0px"
	 viewBox="0 0 947.4 347" style="enable-background:new 0 0 947.4 347;" xml:space="preserve">
<style type="text/css">
	.st0{clip-path:url(#SVGID_2_);}
	.st1{opacity:0.3;}
	.st2{fill:none;stroke:#8ECCD9;stroke-width:0.4;stroke-miterlimit:10;}
	.st3{opacity:0.4;}
	.st4{opacity:0.5;}
	.st5{opacity:0.6;}
	.st6{fill:none;stroke:#8ECCD9;stroke-width:0.44;stroke-miterlimit:10;}
	.st7{fill:none;stroke:#8ECCD9;stroke-width:0.39;stroke-miterlimit:10;}
</style>
<g>
	<defs>
		<polygon id="SVGID_1_" points="947.4,-97.9 401.6,-97.9 260,403.9 947.4,403.9 		"/>
	</defs>
	<clipPath id="SVGID_2_">
		<use xlink:href="#SVGID_1_"  style="overflow:visible;"/>
	</clipPath>
	<g id="workTitleBgRippleClipM" class="st0">
		<g class="st1">
			<ellipse class="st2" cx="473.7" cy="173.5" rx="473.5" ry="173.3"/>
		</g>
		<g class="st3">
			<ellipse class="st2" cx="473.7" cy="173.5" rx="364.2" ry="126.5"/>
		</g>
		<g class="st4">
			<ellipse class="st2" cx="473.7" cy="173.5" rx="280.2" ry="92.3"/>
		</g>
		<g class="st5">
			<path class="st6" d="M719,173.5c0,15.8-19.9,28.8-49.5,40.6c-17.5,7-38.2,16.5-63,21.2c-20.1,3.9-42.8,3.3-66.5,5.2
				c-21.1,1.8-43.3,6.3-66.4,6.3s-45.2-4.5-66.4-6.3c-23.6-2-46.3-1.4-66.5-5.2c-24.9-4.7-45.6-14.2-63-21.2
				c-29.6-11.8-49.5-24.8-49.5-40.6s19.9-28.8,49.5-40.6c17.5-7,38.2-16.5,63-21.2c20.1-3.8,42.8-3.3,66.5-5.2
				c21.1-1.8,43.3-6.3,66.4-6.3s45.2,4.5,66.4,6.3c23.7,2,46.3,1.4,66.5,5.2c24.8,4.7,45.6,14.2,63,21.2
				C699.1,144.8,719,157.7,719,173.5z"/>
			<path class="st7" d="M690.8,173.5c0,14-17.6,25.5-43.8,35.9c-15.5,6.2-33.8,14.6-55.8,18.8c-17.8,3.4-37.9,2.9-58.8,4.6
				c-18.7,1.6-38.3,5.6-58.7,5.6s-40-4-58.7-5.6c-20.9-1.8-41-1.2-58.8-4.6c-22-4.2-40.3-12.6-55.8-18.8
				c-26.1-10.5-43.8-21.9-43.8-35.9s17.6-25.5,43.8-35.9c15.5-6.2,33.8-14.6,55.8-18.8c17.8-3.4,37.9-2.9,58.8-4.6
				c18.7-1.6,38.3-5.6,58.7-5.6s40,4,58.7,5.6c20.9,1.8,41,1.2,58.8,4.6c22,4.2,40.3,12.6,55.8,18.8
				C673.2,148.1,690.8,159.5,690.8,173.5z"/>
		</g>
		<path class="st2" d="M640.3,173.5c0,13.2-18.6,24.4-47.2,33.3c-16.5,5.1-36.3,10.7-58.9,13.3c-18.7,2.2-39.2,1.8-60.5,1.8
			s-41.8,0.4-60.5-1.8c-22.6-2.6-42.4-8.2-58.9-13.3c-28.6-8.8-47.2-20.1-47.2-33.3s18.6-24.4,47.2-33.3
			c16.5-5.1,36.4-10.7,58.9-13.3c18.7-2.2,39.2-1.8,60.5-1.8s41.8-0.4,60.5,1.8c22.6,2.6,42.4,8.2,58.9,13.3
			C621.7,149.1,640.3,160.3,640.3,173.5z"/>
		<path class="st2" d="M602,173.5c0,9.7-14.7,17.8-37,24.2c-12.7,3.7-27.8,8.1-45.1,10c-14.3,1.6-30,0.8-46.2,0.8
			s-31.9,0.7-46.2-0.8c-17.3-1.9-32.4-6.4-45.1-10c-22.3-6.5-37-14.5-37-24.2s14.7-17.8,37-24.2c12.7-3.7,27.8-8.1,45.1-10
			c14.3-1.6,30-0.8,46.2-0.8s31.9-0.7,46.2,0.8c17.3,1.9,32.4,6.4,45.1,10C587.3,155.7,602,163.8,602,173.5z"/>
		<g class="st4">
			<path class="st2" d="M572.6,173.5c0,5.1-6.5,9.1-15.8,13.1c-5.5,2.4-11.8,6-19.7,7.8c-6.3,1.4-13.6,1.1-21.2,2
				c-6.7,0.9-13.6,3.1-21,3.5c-6.8,0.4-14-1-21.2-1s-14.4,1.4-21.2,1c-7.4-0.4-14.3-2.7-21-3.5c-7.5-1-14.8-0.6-21.2-2
				c-7.9-1.8-14.3-5.4-19.7-7.8c-9.3-4-15.8-8-15.8-13.1s6.5-9.1,15.8-13.1c5.5-2.4,11.8-6,19.7-7.8c6.3-1.4,13.6-1.1,21.2-2
				c6.7-0.9,13.6-3.1,21-3.5c6.8-0.4,14,1,21.2,1s14.4-1.4,21.2-1c7.4,0.4,14.3,2.7,21,3.5c7.5,1,14.8,0.6,21.2,2
				c7.9,1.8,14.3,5.4,19.7,7.8C566.1,164.4,572.6,168.4,572.6,173.5z"/>
		</g>
		<g class="st5">
			<path class="st2" d="M550,173.5c0,5.2-9.3,9.2-22.8,12.7c-7.5,1.9-16.3,5-26.4,6c-8.4,0.8-17.5-0.3-27.1-0.3s-18.7,1.1-27.1,0.3
				c-10.1-1-18.9-4.1-26.4-6c-13.5-3.4-22.9-7.4-22.9-12.7s9.3-9.2,22.9-12.7c7.5-1.9,16.2-5,26.4-6c8.4-0.8,17.5,0.3,27.1,0.3
				s18.7-1.1,27.1-0.3c10.1,1,18.9,4.1,26.4,6C540.6,164.3,550,168.3,550,173.5z"/>
		</g>
		<path class="st2" d="M532.5,173.5c0,3.9-7.5,6.6-18,9.1c-5.7,1.4-12.4,4-20.1,4.8c-6.4,0.6-13.4-0.7-20.7-0.7s-14.3,1.3-20.7,0.7
			c-7.7-0.7-14.4-3.4-20.1-4.8c-10.5-2.5-18-5.2-18-9.1s7.5-6.6,18-9.1c5.7-1.4,12.4-4,20.1-4.8c6.4-0.6,13.5,0.7,20.7,0.7
			s14.3-1.3,20.7-0.7c7.7,0.7,14.4,3.4,20.2,4.8C525.1,166.9,532.5,169.6,532.5,173.5z"/>
		<ellipse class="st2" cx="473.7" cy="173.5" rx="44.7" ry="10.2"/>
		<g class="st5">
			<ellipse class="st2" cx="473.7" cy="173.5" rx="34.4" ry="7.4"/>
		</g>
		<ellipse class="st2" cx="473.7" cy="173.5" rx="15.6" ry="2.9"/>
		<ellipse class="st2" cx="473.7" cy="173.5" rx="9.2" ry="1.5"/>
		<ellipse class="st2" cx="473.7" cy="173.5" rx="26.4" ry="5.4"/>
	</g>
</g>
</svg>
